<?xml version="1.0" encoding="UTF-8" standalone="no"?>
<!-- Created with Inkscape (http://www.inkscape.org/) -->

<svg
   xmlns:dc="http://purl.org/dc/elements/1.1/"
   xmlns:cc="http://creativecommons.org/ns#"
   xmlns:rdf="http://www.w3.org/1999/02/22-rdf-syntax-ns#"
   xmlns:svg="http://www.w3.org/2000/svg"
   xmlns="http://www.w3.org/2000/svg"
   xmlns:sodipodi="http://sodipodi.sourceforge.net/DTD/sodipodi-0.dtd"
   xmlns:inkscape="http://www.inkscape.org/namespaces/inkscape"
   width="210mm"
   height="297mm"
   viewBox="0 0 210 297"
   version="1.1"
   id="svg8"
   inkscape:version="0.92.5 (2060ec1f9f, 2020-04-08)"
   sodipodi:docname="logo.svg">
  <defs
     id="defs2" />
  <sodipodi:namedview
     id="base"
     pagecolor="#ffffff"
     bordercolor="#666666"
     borderopacity="1.0"
     inkscape:pageopacity="0.0"
     inkscape:pageshadow="2"
     inkscape:zoom="0.49497475"
     inkscape:cx="543.87726"
     inkscape:cy="571.62161"
     inkscape:document-units="mm"
     inkscape:current-layer="layer1"
     showgrid="false"
     inkscape:window-width="854"
     inkscape:window-height="811"
     inkscape:window-x="1704"
     inkscape:window-y="181"
     inkscape:window-maximized="0" />
  <metadata
     id="metadata5">
    <rdf:RDF>
      <cc:Work
         rdf:about="">
        <dc:format>image/svg+xml</dc:format>
        <dc:type
           rdf:resource="http://purl.org/dc/dcmitype/StillImage" />
        <dc:title></dc:title>
      </cc:Work>
    </rdf:RDF>
  </metadata>
  <g
     inkscape:label="Layer 1"
     inkscape:groupmode="layer"
     id="layer1">
    <path
       d="m 28.801604,153.38641 c 0,0 36.500124,0 36.500124,0 0,0 0,7.70534 0,7.70534 0,0 -13.272777,0 -13.272777,0 0,0 0,32.53377 0,32.53377 0,0 -9.954562,0 -9.954562,0 0,0 0,-32.53377 0,-32.53377 0,0 -13.272785,0 -13.272785,0 0,0 0,-7.70534 0,-7.70534 z m 44.795635,0 c 0,0 9.954557,0 9.954557,0 0,0 0,32.53376 0,32.53376 0,0 18.250064,0 18.250064,0 0,0 0,7.70535 0,7.70535 0,0 -28.204621,0 -28.204621,0 0,0 0,-40.23911 0,-40.23911 z m 37.329611,0 c 5.54144,0 20.48161,-0.70177 24.86985,1.1473 4.96904,2.08895 7.38303,8.39025 4.85295,13.37305 -1.01211,1.97769 -2.38087,2.9709 -4.00682,4.31498 8.85966,3.20207 8.2375,15.51354 1.62595,19.31485 -5.42524,3.12492 -20.63083,2.08893 -27.34193,2.08893 0,0 0,-40.23911 0,-40.23911 z m 39.81835,0 c 0,0 36.50013,0 36.50013,0 0,0 0,7.70534 0,7.70534 0,0 -13.27279,0 -13.27279,0 0,0 0,32.53377 0,32.53377 0,0 -9.95456,0 -9.95456,0 0,0 0,-32.53377 0,-32.53377 0,0 -13.27278,0 -13.27278,0 0,0 0,-7.70534 0,-7.70534 z m -29.86369,15.4108 c 2.23144,0 6.29625,0.27404 8.13786,-0.87367 2.82872,-1.71237 3.06925,-5.56505 0,-7.05475 -1.75872,-0.8393 -6.10551,-0.63403 -8.13786,-0.63403 0,0 0,8.56153 0,8.56153 z m 0,17.97915 c 2.99459,0 7.25017,0.30842 9.76369,-1.58385 2.52187,-1.89216 3.32656,-5.59931 0.66333,-7.75681 -2.51343,-2.04617 -7.35806,-1.78933 -10.42731,-1.78933 0,0 0,11.12999 0,11.12999 z"
       id="Seleção"
       inkscape:connector-curvature="0"
       style="fill:#ffffff;stroke:#000000;stroke-width:0.84274518" />
  </g>
</svg>
