<?xml version="1.0" encoding="UTF-8" standalone="no"?>
<svg
   xmlns:dc="http://purl.org/dc/elements/1.1/"
   xmlns:cc="http://creativecommons.org/ns#"
   xmlns:rdf="http://www.w3.org/1999/02/22-rdf-syntax-ns#"
   xmlns:svg="http://www.w3.org/2000/svg"
   xmlns="http://www.w3.org/2000/svg"
   xmlns:sodipodi="http://sodipodi.sourceforge.net/DTD/sodipodi-0.dtd"
   xmlns:inkscape="http://www.inkscape.org/namespaces/inkscape"
   width="297mm"
   height="210mm"
   version="1.1"
   viewBox="0 0 1052.3622 744.09448"
   id="svg4"
   sodipodi:docname="car2.svg"
   inkscape:version="0.92.5 (2060ec1f9f, 2020-04-08)">
  <metadata
     id="metadata10">
    <rdf:RDF>
      <cc:Work
         rdf:about="">
        <dc:format>image/svg+xml</dc:format>
        <dc:type
           rdf:resource="http://purl.org/dc/dcmitype/StillImage" />
        <dc:title></dc:title>
      </cc:Work>
    </rdf:RDF>
  </metadata>
  <defs
     id="defs8" />
  <sodipodi:namedview
     pagecolor="#ffffff"
     bordercolor="#666666"
     borderopacity="1"
     objecttolerance="10"
     gridtolerance="10"
     guidetolerance="10"
     inkscape:pageopacity="0"
     inkscape:pageshadow="2"
     inkscape:window-width="1275"
     inkscape:window-height="898"
     id="namedview6"
     showgrid="false"
     inkscape:zoom="0.42050406"
     inkscape:cx="1121.2195"
     inkscape:cy="708.18498"
     inkscape:window-x="0"
     inkscape:window-y="0"
     inkscape:window-maximized="0"
     inkscape:current-layer="svg4" />
  <path
     d="m150.2 392.73c-3.0751 0.12932-5.5018 2.6593-5.503 5.737v63.853c-3e-5 3.0422 2.3719 5.557 5.4089 5.7346l234.88 13.682c3.2978 0.1914 6.0771-2.4313 6.0772-5.7346v-63.85c4e-5 -3.0423-2.3718-5.557-5.4089-5.7346l-234.88-13.682c-0.19119-0.0111-0.38282-0.0129-0.57418-5e-3zm5.9831 11.826 223.4 13.013v52.343l-223.4-13.011zm655.04-378.17c-1.0732-0.0025-2.1475 0.05904-3.2183 0.18577-4.0773 0.5464-7.7151 2.0148-10.75 3.9638-6.9901 4.5864-11.338 10.933-14.077 16.106-1.1537 2.1324-2.12 4.2113-2.9578 6.2075 2.7808 0.3275 5.5492 0.66692 8.304 1.0181 0.60953-0.89084 1.2336-1.7795 1.8866-2.6562 3.143-4.1431 7.2676-9.0576 12.239-11.539 2.0482-1.0525 4.3096-1.801 6.5163-1.9059 2.308-0.17624 4.8392 0.34776 7.3631 1.3462 8.1388 3.2672 16.836 6.6545 25.894 10.07 15.885 5.9895 30.881 11.313 43.855 15.631 3.3951 1.0091 6.8466 3.4235 9.9759 5.6695 4.1203 3.025 8.0083 6.4538 11.052 9.1749 1.8103 1.6203 3.3192 2.9954 4.7141 4.2581 0.36598 0.16359 0.74014 0.31464 1.1049 0.48011 2.6846 1.2177 5.294 2.5018 7.8649 3.8239-0.30402-0.82041-0.72956-1.7814-1.3703-2.9723-1.4319-2.6617-3.7765-6.3313-6.9964-10.511-2.6322-3.4229-6.1035-7.5216-10.35-11.476-3.0349-2.8932-7.0312-6.1862-12.234-8.4222-12.596-5.3234-27.372-11.224-43.257-17.214-9.0583-3.4154-17.827-6.6148-26.097-9.5344-3.0374-1.1102-6.2426-1.6946-9.462-1.7033zm109.77 61.834c0.074 0.19964 0.18482 0.44127 0.23884 0.61761 0.14313 0.46715 0.21513 0.85014 0.21713 1.146 1e-3 0.15068-0.0149 0.27718-0.0507 0.38119-0.0918 0.10722-0.13483 0.16815-0.1544 0.20265-0.0193 0.03397-0.0149 0.04274-0.0145 0.04348-5.8e-4 -5.93e-4 -7e-3 -0.0062-0.0458 0.0025-0.0385 0.0086-0.10993 0.03384-0.23884 0.09165-0.10932 0.0062-0.23579-0.01297-0.37877-0.05311-0.28177-0.07918-0.62868-0.24658-1.0398-0.49698-0.79227-0.4825-1.8274-1.2753-3.0856-2.3354-1.3186-1.1108-2.7786-2.42-4.4174-3.9035-16.151-7.2187-33.45-12.629-52.352-17.262-21.001-5.1558-42.959-9.0635-66.514-12.195-1.5354-0.20427-3.0863-0.39433-4.6297-0.59108-1.9078 2.7883-3.5673 5.5395-4.965 7.9469 2.8556 0.31969 5.7001 0.65136 8.5283 0.99638 23.367 2.8524 45.071 6.4449 65.812 11.257 19.113 4.4421 36.397 9.5704 52.446 16.574 7.0435 3.0737 13.627 6.4195 19.715 10.28 5.4538 3.464 10.392 7.225 14.593 11.53 6.9248 7.0978 12.871 14.078 17.479 21.691 3.0581 5.029 5.6485 10.44 8.0169 15.566 2.8308 6.1337 5.424 12.255 7.7756 18.007 2.97 7.5986 5.7659 14.737 8.3788 21.394 8.757 10.913 13.9 22.338 16.852 31.807 5.0948 16.395 5.0918 27.43 5.4524 31.983 0.2228 0.2677 0.4743 0.5853 0.7045 0.86611 0.3221-3.7811 1.5712-15.246-3.3101-33.67-2.5778-9.7698-7.3982-21.612-16.082-33.013-2.3478-6.5904-4.8619-13.626-7.5296-21.083-2.2327-5.864-4.7149-12.121-7.462-18.434-2.275-5.2356-4.8379-10.868-7.9735-16.282-4.778-8.2122-10.873-15.693-17.87-23.088-4.5474-4.8029-9.8001-8.9723-15.513-12.714-4.0092-2.6303-8.223-5.0192-12.584-7.2618zm88.323 165.55c-0.077 0.90256-0.1177 1.4982 0.01 1.4958-0.4247 9e-3 -0.591-0.80731-0.7141-2.3619-4.4181-5.3072-7.3927-8.0211-8.3016-7.4282-1.1876 0.77464 1.4596 7.2619 6.7214 17.58 1.421 2.7882 3.0948 5.9878 4.9023 9.3269 5.1175 9.5157 10.568 21.64 13.848 35.723 1.2763 5.4297 2.2183 11.103 2.8419 17.047 0.1184 1.1276 0.2128 2.251 0.3064 3.3728-2.0972-0.33326-3.782-0.0965-4.9433 0.59589-1.5062 0.80806-2.5598 1.661-3.199 2.4125-1.0419 1.0996-1.8735 2.1944-2.5525 3.2159-2.147 3.1866-3.807 6.4654-5.3172 9.7153-2.3317 4.9684-4.3917 10.042-6.4005 15.315-6.2024 16.266-11.468 32.975-16.897 51.392-0.24413 0.83606-0.47271 1.6691-0.69 2.5018-1.2573 4.8184-2.1049 9.5908-2.965 13.964-1.3546 6.7969-2.6703 13.177-4.4077 19.361-1.83 6.4209-3.8563 12.272-6.8034 17.363-2.7737 4.6296-5.9465 8.5224-9.8432 10.422-38.871 20.157-68.112 36.278-79.173 43.711 0.19232 1.0876 0.39146 2.1704 0.56935 3.269 11.985-3.9485 43.022-17.708 83.571-36.98 6.4847-3.2568 11.472-8.5214 14.946-14.478 3.7655-6.2824 6.3394-13.039 8.3571-19.954 1.9808-6.7046 3.4508-13.418 4.8516-20.28 0.93909-4.5455 1.75-9.1131 2.8396-13.279 0.1889-0.7221 0.3874-1.4338 0.5959-2.1351 4.1513-14.118 7.959-26.883 12.063-39.329 0.037-0.41738 0.1352-0.7113 0.2967-0.8854 1.1809-3.5646 2.3807-7.1089 3.6285-10.649 1.8334-5.1974 3.6348-10.062 5.6453-14.753 1.0247-2.3618 1.9866-4.5364 3.0567-6.5115-0.1521-0.96422-0.3285-1.9018-0.5597-2.7889-0.1857-0.69443-0.3569-1.2857-0.5645-1.7274-0.1992-0.34259-0.2234-0.46023-0.1448-0.26297 0.073 0.28454 0.605 0.56094 1.6357 0.97949 1.1607 0.11253 1.8496 0.10561 2.1424-0.15681 0.2338-0.17701 0.2306-0.0584-0.111 0.23643-0.4009 0.44086-0.8103 1.0693-1.3027 1.8384-0.3802 0.6047-0.744 1.2333-1.0953 1.8818 0.1811 1.1482 0.3246 2.3335 0.4535 3.5392 0.6731 6.4856 0.7545 13.272 0.7938 19.139 0.047 7.7828-0.092 15.737-0.181 21.645-0.053 3.5422-0.096 6.645-0.1182 9.4596 0.093-5.4993 0.4213-12.297 0.9481-20.106 0.635-9.5038 1.6102-22.289 1.4958-34.174-0.043-4.4047-0.2353-8.9293-0.6176-13.508 1.9613 0.63811 3.2806 1.5454 3.9614 2.5597 0.9159 1.2032 1.4673 2.2756 1.7443 3.1387 0.4378 1.1935 0.7209 2.3039 0.9119 3.3028 0.5423 2.7708 0.7524 5.4146 0.8541 7.8263 0.3251 7.1659-0.046 14.166-0.4729 20.135-0.5771 8.1691-1.4333 15.717-2.2581 21.848-0.998 7.422-2.0423 13.419-2.953 17.563-0.5532 2.4538-1.0547 4.2849-1.4958 5.4789 0.07 0.24019 0.1382 0.47895 0.2075 0.72135 1.8172-1.9276 5.0785-14.645 8.4222-33.703 1.7206-9.7706 3.5223-22.26 3.7974-35.288 0.1245-5.8777-0.083-11.999-0.7455-18.251-0.6868-6.4776-1.8246-12.717-3.4041-18.688-4.1384-15.53-11.049-28.266-17.778-37.665-2.2545-3.1373-4.3055-5.9277-6.2654-8.4946-1.4915-1.953-2.8602-3.6755-4.1423-5.24zm20.116 157.33c-0.1693 0.17964-0.3298 0.29914-0.4728 0.2871-0.053-5e-3 -0.1039-0.0226-0.1544-0.041-0.2281 0.42678-0.4384 0.66333-0.6249 0.64416-0.6234-0.0641-0.9657-2.6693-1.047-7.45-0.01-0.28395 1e-4 -0.70659-0.01-1.0036-6.1895-19.037-12.52-29.462-13.09-29.255-0.083 0.0303-0.1471 0.094-0.2099 0.16164-0.098 0.29576-0.1991 0.5893-0.2967 0.88541-0.5197 5.926 10.819 36.033 13.52 80.996 0.9685 16.338 0.6627 34.939-3.421 53.378-1.4005 6.308-3.2686 12.649-5.6694 18.859-4.246 10.982-9.8778 20.835-16.789 29.218-2.087 2.6675-5.3152 4.6587-8.7599 6.0772-3.9504 1.5914-8.3309 2.2979-12.663 2.4753-9.7176 0.24612-18.62-1.8331-25.255-6.3788-1.7434-1.104-3.2858-2.853-4.6779-4.7479-1.6742-2.3212-3.0251-4.9706-4.1882-7.6019-2.903-6.548-4.7056-13.652-5.9976-19.305-2.4409-16.118-4.47-25.611-5.7153-25.575h-0.01c-1.2419 0.0876-1.527 9.7158-0.9795 26.429 0.63258 6.0724 1.8274 13.791 4.5356 21.638 1.0718 3.0994 2.4874 6.3968 4.4656 9.6164 1.6163 2.669 3.8025 5.3671 6.7503 7.6357 8.479 6.3185 19.505 9.7058 31.264 9.5874 5.3672 0.013 11.055-0.77415 16.632-2.7913 4.9959-1.7782 9.9131-4.814 13.836-9.3366 7.9349-9.3783 14.367-20.34 19.081-32.473 2.6658-6.8619 4.6804-13.837 6.1182-20.758 4.1916-20.132 4.0378-39.816 2.275-56.835-1.784-17.343-4.9765-32.194-8.4511-44.338zm-2.304-7.5633c0.018 0.0567 0.037 0.11438 0.056 0.17129-0.021-0.48163-0.047-0.92172-0.06-1.4451 0 0.39822 0 0.89682 0.01 1.2738zm0-1.2738c-0.017-1.6789-0.038-3.3053-0.024-5.3703-0.028 1.9879-0.016 3.7577 0.024 5.3703zm-0.024-5.3703c0-0.16962 0.01-0.40673 0.01-0.57901 0 0.19776 0 0.38468-0.01 0.57901zm0.085 6.8154c0.1923 4.5238 0.6973 7.3012 1.6212 7.6381 0.1341-0.25091 0.2721-0.56755 0.4198-0.96743-0.6747-2.3291-1.3543-4.5527-2.041-6.6707zm-140.88 118.06c-3.2578 1.0733-5.1892 1.4631-5.4234 0.99155-0.25551-0.51437 1.4912-2.0009 4.854-4.2606-1.7694-10.006-4.1198-19.557-6.9288-28.54-5.3582-17.162-12.211-32.008-19.964-44.676-2.2714-3.721-4.58-7.1742-6.9192-10.393-0.0145 0.0834-0.0317 0.20935-0.0458 0.28711-0.094 0.51689-0.17957 0.90636-0.25572 1.1677-0.0388 0.13286-0.0755 0.23068-0.10858 0.29674-0.0167 0.0333-0.0331 0.0584-0.0483 0.0747-0.0151 0.0124-0.0272 0.0181-0.041 0.0169h-2e-3c-0.0138-1e-3 -0.0259-9e-3 -0.0385-0.0241-0.0124-0.0188-0.0236-0.0463-0.0337-0.082-0.0203-0.0708-0.0361-0.17402-0.0506-0.31121-0.0284-0.26848-0.0478-0.66744-0.0579-1.1894-5e-3 -0.2577 4e-3 -0.81442 2e-3 -1.1363-6.538-8.8457-13.296-15.852-20.089-21.324-5.7408-4.6207-11.147-7.7948-15.954-9.9518-10.504-4.715-16.78-4.1046-16.856-3.6816-0.17265 0.95678 5.7482 1.8972 14.924 7.4017 4.2574 2.5543 8.9425 5.9648 13.993 10.717 8.3759 7.8727 16.454 18.189 24.294 32.374 6.8372 12.407 12.803 26.762 17.462 43.341 4.2325 15.089 7.237 31.668 8.222 49.329 0.89245 16.115 0.10735 33.155-3.3172 50.181-3.1644 15.705-8.5917 31.52-16.984 45.976-0.94671 1.6341-1.9313 3.251-2.9554 4.8492-8.1459 12.713-18.361 23.679-29.848 32.359-15.711 11.921-33.858 19.617-51.563 24.287-10.323 2.677-20.485 3.7014-30.036 2.3981-8.4993-1.1239-16.462-4.0875-23.262-8.2654-7.1033-4.3392-13.138-10.081-18.113-16.056-5.5883-6.7207-10.042-14.037-13.628-20.953-8.3557-16.095-13.138-32.419-15.918-42.755-2.0741-9.5841-3.6735-15.991-4.7141-18.801-0.44872 0.20931-0.89543 0.42003-1.3486 0.62243-0.0502 3.1631 0.45242 9.6009 1.4716 19.035 1.7173 10.893 5.3469 27.776 13.324 45.382 3.3985 7.4926 7.8176 15.525 13.655 23.165 5.2017 6.8169 11.768 13.488 19.867 18.837 3.2187 2.1152 6.6866 3.9769 10.34 5.5658 7.392 0.92374 14.083 1.3852 19.402 1.6984 11.87 0.69894 18.979 0.88846 19.127 2.3112 0.0392 0.37783-0.6848 0.86914-1.971 1.3993 4.8708-0.44559 9.7574-1.2665 14.618-2.468 18.989-4.6112 38.636-12.706 56.065-25.655 12.721-9.4861 23.986-21.479 32.934-35.445 1.1246-1.7553 2.2067-3.5307 3.2449-5.3269 9.1523-15.865 14.958-32.973 18.174-49.836 3.487-18.255 4.0873-36.308 2.8299-53.247-0.49751-6.736-1.2916-13.3-2.3257-19.686zm-125.54 191.66c-6.6698 0.61018-13.309 0.49568-19.793-0.50422-5.915-0.9331-11.536-2.6308-16.765-4.9047-8.4253-1.0529-17.773-2.7108-27.206-5.5416-10.249-3.0722-20.989-7.6544-30.832-14.28-3.883-2.6135-7.4795-5.4461-10.774-8.4873-11.359-10.388-18.978-22.96-23.853-34.357-8.7033-20.337-9.4516-36.131-11.32-40.437-0.27449 6.7e-4 -0.54805 6e-3 -0.82267 5e-3 -0.40435 0.26341-0.82188 0.50959-1.2304 0.7672-1.5117 5.3487-3.3572 21.243 3.8963 43.226 4.2951 13 12.138 27.503 24.98 39.73 3.7443 3.5362 7.832 6.8048 12.234 9.7756 11.185 7.5486 23.242 12.397 34.678 15.235 19.797 4.9029 37.976 4.4967 49.838 3.2063 8.3763-0.91123 14.158-2.2743 16.97-3.4331zm-690.73-449c4.9546-4.245 10.45-8.0097 16.186-11.455 9.3931-5.6162 19.43-10.265 29.689-14.376 22.26-8.9151 45.543-15.22 68.755-20.355 19.899-4.3955 39.86-7.855 59.711-10.579 9.2321-1.3659 18.417-2.7259 27.563-4.0772l0.14233-0.0868 0.41496-0.25573c0.54445-0.33452 1.0878-0.66813 1.6333-1.0036 0.2502-0.2969 0.50496-0.59533 0.75995-0.89505 0.9777-1.1493 1.9635-2.2951 2.9578-3.4403 3.6483-4.202 7.3522-8.3506 11.088-12.451 12.349-13.553 24.991-26.538 37.993-38.897 16.035-15.234 32.352-29.395 49.727-41.747 8.3403-5.9272 16.816-11.37 25.616-15.986 7.8425-4.097 15.785-7.5562 23.942-9.6068 5.5983-1.4216 11.214-2.7313 16.832-3.9566-16.45 0.22642-25.752 0.18013-25.793-0.60796-0.0437-0.84346 19.425-3.0481 54.22-4.8782 5.783-0.98516 11.551-1.9034 17.286-2.7551 24.54-3.6416 48.858-6.1795 72.543-7.9855 55.293-4.2142 107.6-4.6078 156.31-2.3305 20.697 0.96812 40.526 2.4382 59.72 4.4512 0.66936-2.432 1.5946-5.2319 2.883-8.3016-19.958-2.3504-40.591-4.1052-62.133-5.31-44.01-2.4628-90.98-2.7188-140.45 0.05793 0.28359 0.29839 0.42714 0.57575 0.3836 0.82509-0.30939 1.772-9.1052 1.8753-22.803 0.62968-22.22 1.6454-44.994 3.9534-68.019 7.2376-10.798 1.5391-21.733 3.3013-32.721 5.3703-0.71946 0.46202-1.356 0.84686-1.8987 1.1291-0.55226 0.28724-1.0186 0.47541-1.392 0.5573-0.19009 0.04212-0.35866 0.05645-0.50181 0.04101-0.0721-0.0074-0.13766-0.02285-0.19783-0.04583-0.0625-0.02384-0.11945-0.05583-0.16887-0.09647-0.0494-0.04064-0.0901-0.0877-0.12546-0.14476-0.0341-0.05497-0.0611-0.11796-0.082-0.18817-0.0328-0.11043-0.0363-0.25372-0.0362-0.40048-8.8474 1.7324-17.721 3.6628-26.581 5.8649-9.3192 2.3393-18.108 6.0728-26.451 10.427-9.4004 4.8881-18.341 10.561-26.996 16.671-18.022 12.717-34.822 27.166-51.153 42.594-13.266 12.524-26.15 25.671-38.714 39.38-3.802 4.1482-7.582 8.3548-11.315 12.63-1.0172 1.1649-2.0335 2.34-3.047 3.5247-0.0873 0.10215-0.17533 0.2061-0.26297 0.3088 0.37506-0.0305 0.75413-0.0611 1.1291-0.0917l-0.10858 0.0458c-0.10475 0.0451-0.20881 0.0899-0.31363 0.13511-0.41259 0.1778-0.82674 0.35651-1.24 0.53558 0.17849-0.21054 0.35569-0.41686 0.53318-0.62485-7.5352 0.61428-15.092 1.229-22.683 1.8456-20.179 2.7156-40.506 6.1934-60.811 10.632-23.614 5.1544-47.535 11.613-70.692 20.828-10.684 4.2486-21.303 9.1689-31.44 15.197-8.8275 5.2264-17.422 11.451-24.835 19.218-9.9853 10.554-17.767 22.982-23.501 36.224-5.8345 13.47-9.7057 27.617-12.408 41.889-0.51335 2.712-0.9887 5.4272-1.4282 8.1472-4.2747 26.453-5.2366 53.307-6.7672 79.04-1.3122 21.115 1.4749 42.631 9.8432 62.171 6.405 14.832 15.965 28.097 27.686 38.869 8.6252 7.9259 18.336 14.553 28.709 19.71 3.1333 1.56 6.3551 2.9984 9.6743 4.263 0.91057 0.34694 1.846 0.68394 2.8082 1.006 0.25206 0.0844 0.51668 0.17193 0.79131 0.25815 11.658 6.0601 23.212 13.403 36.912 17.824 7.126 2.2772 14.675 3.5022 22.314 3.2787 8.3945-0.23833 16.473-2.4124 23.8-5.8046 115.65 13.791 223.93 26.603 323.12 38.229 20.262 7.9043 40.978 13.863 62.34 14.591 21.275 0.8604 42.038-4.8354 59.177-15.643l-1.1e-4 2e-5c0.36357-1.2864 0.70851-1.9788 0.90229-1.9807 0.45537-5e-3 0.81813 0.44198 1.1508 1.2087 15.671-0.0383 31.136-2.5919 45.158-8.8034 0.0571-0.0253 0.11191-0.0542 0.16888-0.0797 0.0224-1.4061 0.14214-2.2296 0.39324-2.2702 0.22741-0.0367 0.55319 0.5617 0.95536 1.6478 13.139-6.1289 24.366-15.186 33.39-25.44 11.242-12.783 19.742-27.309 26.808-41.267 9.4332-18.635 17.288-38.042 24.181-55.527-1e-3 5e-3 4e-3 -0.0194 2e-3 -0.0145-1e-3 2e-3 7e-3 -0.0387 7e-3 -0.0362 0.0716-0.25906 0.049-0.18244 0.12068-0.44149 0.0388-0.18309 0.0782-0.36681 0.11821-0.55248 0.15357-0.71236 0.31234-1.4263 0.47287-2.1399 0.5927-2.6348 1.2148-5.2516 1.8552-7.8432 2.1712-8.7838 4.537-17.249 7.1098-25.431 3.3371-10.602 6.8976-20.455 11.129-29.776 4.1398-9.0406 8.3732-17.105 14.323-23.583 8.3963-9.1653 16.236-16.842 25.363-22.461 3.139-1.9296 6.263-3.5119 9.4861-4.4704 2.5459-0.75001 5.0723-1.1325 7.4572-0.89023 2.0961 0.19665 4.1217 0.87255 5.8625 1.918 1.8613 1.1009 3.4742 2.6689 4.8444 4.386 3.4951 4.3644 5.5045 9.9221 6.9674 14.96 1.9432 6.7863 2.9468 13.665 3.585 19.52 0.79355 7.3042 1.0824 14.136 1.2087 19.464 0.14835 6.2732 0.0865 11.604 0.0579 14.941-0.0124 1.42-9e-3 2.3343-5e-3 3.2569 0.2259 0.30564 0.45497 0.58976 0.68033 0.89988 0.17044-0.98285 0.35978-2.3117 0.5573-4.0844 0.38196-3.4279 0.81055-8.5819 1.006-15.006 0.16453-5.3978 0.18557-12.265-0.33775-19.754-0.41584-5.983-1.2043-13.065-3.0133-20.244-1.318-5.312-3.3572-11.369-7.2376-16.615-1.5539-2.0929-3.5079-4.0683-5.9083-5.6068-2.2932-1.4528-4.9467-2.4164-7.7539-2.7527-3.1443-0.35878-6.3123 2e-3 -9.3366 0.85163-3.7984 1.0579-7.379 2.7418-10.806 4.772-9.8764 5.842-18.338 13.715-26.999 22.897-6.7029 7.1328-11.485 15.688-15.814 24.902-4.5285 9.5606-8.3533 19.62-11.901 30.347-2.7433 8.2877-5.2733 16.862-7.6019 25.754-0.30173 1.152-0.58368 2.3335-0.87816 3.4982 0.0915-0.0199 0.18352-0.0379 0.27503-0.0579l1.8649 9.5272c-1.7281 0.30043-3.4585 0.58783-5.1894 0.87576-6.7326 16.314-14.245 33.969-23.042 50.76-7.0983 13.551-15.376 27.422-26.031 39.218-8.7976 9.7457-19.616 18.249-32.051 23.578-13.637 5.8661-29.006 8.2335-44.912 8.386-5.3563 3.3587-11.109 6.1994-17.136 8.4922 0.75272 0.96643 1.3713 1.7899 1.7539 2.3715 0.23511 0.35744 0.39932 0.6425 0.48975 0.85405 0.0456 0.1066 0.074 0.19601 0.082 0.26537 4e-3 0.0348 4e-3 0.0639-2e-3 0.0893-6e-3 0.0261-0.0178 0.049-0.0337 0.0651s-0.0367 0.0254-0.0628 0.0314c-0.0253 6e-3 -0.0543 7e-3 -0.0893 2e-3 -0.0695-7e-3 -0.15818-0.034-0.26537-0.0797-0.21283-0.0905-0.49902-0.25554-0.85646-0.49457-0.70436-0.47102-1.6793-1.2245-2.9168-2.263-0.0358-0.03-0.082-0.0709-0.11821-0.10129-12.026 4.2846-25.082 6.3918-38.292 5.9469-20.088-0.81162-40.029-6.7896-60.193-14.639-100.26-12.221-209.99-25.477-327.33-39.543-7.2266 2.9777-14.873 4.9481-22.487 5.2039-6.0626 0.1993-12.266-0.85731-18.29-2.7672-12.166-3.8154-23.456-11.123-36.239-17.66 0.01112 4e-3 -0.05694-0.0206-0.04583-0.0169-0.04262-0.0162-0.08474-0.032-0.12787-0.0483-0.16869-0.0641-0.34174-0.1291-0.51629-0.19543-0.18084-0.0569-0.37106-0.12068-0.57177-0.18817-0.7658-0.25725-1.5442-0.5411-2.3378-0.8444-2.8903-1.1047-5.747-2.3913-8.579-3.8046-9.3564-4.6765-18.115-10.674-25.86-17.817-10.465-9.6505-19.023-21.542-24.688-34.738-6.48-14.954-9.174-31.602-9.0663-48.439l-3.9132-1.5223 0.93366-2.7841 1.4861-2.5356 1.6502 0.86368c0.03236-0.71857 0.05929-1.4383 0.10129-2.1568 0.89455-14.584 1.5979-29.33 2.7599-43.969-2.6806-3.4388-2.3083-5.733-2.1713-5.7636 0.2877-0.0641 0.67562 1.3265 2.3667 3.3148 0.87948-10.564 2.0133-21.066 3.6912-31.392 0.42482-2.6144 0.88347-5.2182 1.38-7.8118 0.24702-1.2907 0.51143-2.574 0.63782-3.7186 0.95616 6.9321 4.434 13.061 9.5431 17.719 5.7796 5.0874 12.451 8.4211 18.625 11.057 7.4545 3.228 14.997 5.7375 22.164 7.8335 9.9628 1.8272 19.386 3.596 28.297 5.31 9.2333-22.96 16.799-42.267 22.765-57.974-4.239-20.305-7.4041-34.439-9.3486-41.913-0.58979-0.0359-1.1754-0.0768-1.7636-0.11339 0.88684 7.4516 3.1004 21.593 6.5356 41.612-5.8963 14.885-12.779 32.838-20.565 53.768-7.6428-2.5341-15.586-5.2212-23.843-8.07-6.8763-2.2064-14.009-4.7649-20.89-7.9469-5.8178-2.7262-11.709-5.7392-16.164-9.9542-3.5238-3.1892-5.6926-8.1493-6.4367-13.392-2.0393-14.917 1.8144-30.862 9.1218-46.311 0.84888-1.8267 2.209-3.6465 3.7491-5.6478 1.677-2.1373 3.5154-4.2148 5.462-6.2992 1.5328-1.6389 1.5896-1.5843 3.2166-3.1766l4.9732-0.35962c1.8919 0.59123 3.5879 0.45385 5.3351 0.79992 5.3397 1.0696 7.4463 1.3215 12.75 1.916 12.157 1.3709 24.282 2.2861 36.755 3.0615-0.45721-3.8417-0.58375-6.0158-0.29916-6.07 0.29484-0.0562 1.0056 2.1201 2.0627 6.1834 4.1156 0.25086 8.2662 0.49041 12.478 0.72377 23.307 1.2941 46.834 2.2325 71.626 3.0712 27.95 0.94568 56.3 1.6998 85.863 2.3739 39.161 0.89299 78.826 1.6066 120.18 2.2582 22.971 0.36191 45.938 0.69698 68.263 1.0157 7.6527 0.10931 14.071 0.19953 21.416 0.30156 0.63394-0.72137 1.1013-1.1827 1.2208-1.1049 0.10277 0.067-0.0111 0.46423-0.29433 1.117 51.183 0.7105 96.779 1.3049 144.96 2.3257 0.88781-0.0464 1.99 0.39241 3.0639 1.0229 1.2368 0.73935 2.4023 1.9553 3.5513 3.3727 2.418 3.0633 4.1321 6.7945 5.2135 10.702 2.5402 9.1666 2.0848 19.157 0.0435 28.577-2.1945 9.9133-6.2304 19.268-11.573 27.522-5.9661 9.5874-17.095 15.668-28.068 19.829-12.728 4.6851-26.613 6.7716-39.686 8.3643-15.798 1.9001-31.462 2.7526-45.995 3.1894-18.687 0.55686-36.026 1.0034-52.193 1.3534-3.1054-22.061-5.9734-41.368-8.5621-57.829 17.061-26.967 27.364-44.078 29.25-48.429-0.31723-5e-3 -0.60868-7e-3 -0.92642-0.0123-3.552 4.0418-14.972 20.336-33.086 47.407 2.5293 17.447 5.7446 38.439 9.6816 63.033 17.069 0.85787 35.613 1.8544 55.853 3.006 14.746-0.13411 30.722-0.70563 47.016-2.3764 13.335-1.3458 27.937-3.3595 42.027-8.2461 12.264-4.1329 25.167-11.31 33.503-23.498 6.1206-9.1992 10.78-19.67 13.394-30.893 2.5361-10.697 3.0855-22.427 0.16164-33.87-1.3322-5.196-3.6623-10.281-7.0856-14.767-1.6418-2.1894-3.7385-4.2886-6.3643-6.0266-2.1978-1.4608-4.8244-2.4584-7.725-2.7817l-2.1e-4 3.3e-4c-0.035 0.0305-0.0688 0.0587-0.10376 0.0893 0.0335-0.0304 0.0655-0.0589 0.0989-0.0893-0.39464-0.0439-0.79463-0.0756-1.199-0.0941-54.156-1.581-107.3-2.4878-167.4-3.4741-22.638-0.37158-44.981-0.71892-68.258-1.0856-41.652-0.65621-80.686-1.2831-120.13-2.0314-29.604-0.56168-57.793-1.1613-85.759-1.9156-24.788-0.66878-48.183-1.407-71.421-2.4704-17.596-0.80753-34.026-1.6415-50.439-3.2955-5.2296-0.53086-10.239-1.0888-15.09-2.0048-0.51046-0.0976-1.4054 0.21652-1.891 0.11537m380.46-202.33c1.4683-0.28751 2.9363-0.57547 4.4029-0.85162 0.69614-0.44704 1.4701-0.96745 2.3209-1.5561 3.0778-2.1282 7.7333-5.5346 13.062-8.772 4.7588-2.8768 10.628-6.0289 16.989-7.9493 5.6848-1.6991 12.153-2.5986 18.28-1.4282 1.3027 0.23435 2.6148 0.46874 3.9373 0.69964 17.704 3.0911 33.888 5.2829 46.152 6.3981 1.7774-0.13163 3.5593-0.26764 5.3293-0.39084 5.7321-0.3992 11.423-0.74584 17.09-1.0639-3.5361-3.7206-31.752-11.054-66.446-17.112-1.3225-0.2309-2.6371-0.45696-3.9421-0.67793-8.8148-1.4379-17.218 0.01334-24.191 2.7479-7.6919 3.0034-13.936 7.3101-18.63 11.334-5.3603 4.5767-9.154 9.0954-11.445 12.463-1.2513 1.8381-2.0927 3.3851-2.5404 4.5573-0.23051 0.60348-0.35617 1.1039-0.37877 1.4958-2e-3 0.04138 0.01 0.06732 0.01 0.1061zm327.26-1.3607c-0.26821 0.97446-0.52785 1.9406-0.71412 2.7696-0.94181 5.1709-1.0556 8.1578-0.20506 8.4463 0.85012 0.28845 2.5807-2.1498 4.9481-6.7334 0.6115-1.0699 1.3685-2.3989 2.193-3.8191-2.0636-0.23102-4.1435-0.44547-6.222-0.66345zm-305.86 8.62c-9.4497 1.6098-18.943 3.4177-28.427 5.4861 19.433-0.26748 48.988-0.92365 87.156-1.2811 70.263-0.65795 169.36-0.10475 281.78 8.7768-5.7109 22.896-8.0247 43.816-12.408 67.153-1.5558 11.178-3.4224 22.396-6.2582 33.276-0.96963 5.6144-2.2074 11.154-3.8601 16.473-1.1496 3.6999-2.4941 7.2738-4.0796 10.683-35.117-3.6734-74.034-8.4483-106.92-12.207-40.265-3.9157-77.106-7.0527-113.42-9.0953-170.36-9.5728-285.78 8.3412-285.75 8.7551 0.34247 4.3404 116-9.3253 285.07 2.2316 36.195 2.4723 72.634 5.9043 112.91 10.053 29.105 2.5215 61.157 5.4047 92.791 7.8601 5.069-1.8513 10.143-3.777 15.192-5.8625l1.5416 3.8866c-2.5084 0.95483-4.9402 1.84-7.3317 2.6924 3.6083 0.27027 7.2176 0.54301 10.801 0.79854 2.6484-4.3358 5.0176-8.7942 7.1556-13.339 1.8396-3.9104 3.4804-7.8679 4.9892-11.836-0.0242-9e-3 -0.048-0.0203-0.0724-0.0289 0.0243 7e-3 0.048 0.0187 0.0724 0.0266 1.012-2.6618 1.9771-5.329 2.8637-7.9928 2.9952-11.596 4.9342-23.281 6.4825-34.7 2.4574-26.438 2.9758-49.387 6.6345-73.636-115.56-10.772-215.4-11.952-287.33-10.345-23.064 0.51543-43.038 1.3009-59.585 2.1713zm330.93 124.5v2e-3c4.8713 1.7711 8.8208 7.3317 12.188 15.39 3.3887 8.109 6.1939 18.765 8.7189 30.668 3.7937 17.883 7.0102 38.922 10.598 58.094 0.9771 1.4091 1.9312 2.8218 2.8468 4.2437-4.2498-20.306-7.898-42.914-12.376-62.572-2.7093-11.893-5.7049-22.557-9.2859-30.651-3.568-8.0655-7.7146-13.56-12.69-15.175zm34.352 108.4c0.9291 4.4393 1.8753 8.8052 2.8782 12.965l-2.1279 0.49698c-1.2584-5.595-2.4468-11.559-3.5971-17.706-2.5956-3.7431-5.3852-7.4354-8.4512-10.999-4.8336-5.6351-10.443-11.089-17.023-15.626-5.8009-4.0298-12.64-7.2969-20.265-8.6224-7.5528-1.2365-15.457-0.22271-22.613 2.9385-8.9047 4.0192-16.239 10.482-22.265 17.771-8.6936 10.399-15.326 22.244-21.054 34.688-6.3155 13.773-9.4989 27.912-13.242 42.21-3.5917 13.324-7.5963 26.867-15.086 37.761-1.0751 1.6482-2.6922 3.2538-4.5308 5.0422-2.0046 1.9082-4.1699 3.7376-6.4367 5.5537-1.8414 1.4728-3.7271 2.9081-5.6526 4.3112-0.58373 0.42525-1.1664 0.84354-1.7491 1.2545-0.15307 0.10796-0.30478 0.21491-0.45356 0.31846 0.0226-0.0124 0.0532-0.0235 0.0748-0.0362-0.0321 0.0167-0.0635 0.0329-0.0941 0.0483 6e-3 -4e-3 0.0132-7e-3 0.0193-0.0123-0.68423 0.37617-1.8311 0.61775-3.3221 1.0084-2.4206 0.61977-4.9826 1.0793-7.6623 1.5102-7.9522 1.2701-16.08 2.0276-24.437 2.7093-11.404 0.92541-22.897 1.5691-34.594 2.1013-11.401 0.5184-22.877 0.91334-34.478 1.2256-2.8071 0.0756-5.6093 0.14633-8.4077 0.21231-35.366 0.83405-70.196 0.97374-103.7 0.76959-23.122-0.14106-45.561-0.47458-67.462-0.93847v11.291c2.8856 0.22009 5.8384 0.44158 8.6996 0.66104 19.104 0.50311 38.653 0.87226 58.661 1.0856 33.606 0.3587 68.545 0.30488 104.09-0.5211 2.8119-0.0653 5.6287-0.13635 8.4511-0.21231 11.664-0.31391 23.22-0.71878 34.714-1.2569 11.782-0.55121 23.426-1.2295 35.033-2.2027 8.4577-0.70561 16.9-1.531 25.366-2.9071 2.8454-0.45956 5.7683-1.0027 8.7407-1.766 1.9341-0.48725 4.2395-1.2167 6.7406-2.5115 0.043-0.0278 0.0876-0.0543 0.13028-0.082 0.12068-0.0782 0.24039-0.15681 0.35946-0.23401 0.18116-0.12722 0.35833-0.25185 0.53317-0.37636 0.63966-0.45552 1.2728-0.91409 1.8963-1.3727 2.0556-1.5118 4.0772-3.0671 6.0627-4.6707 2.4358-1.9643 4.851-4.0331 7.1822-6.2678 2.0768-1.9528 4.2446-4.2348 6.1713-7.0567 8.6049-13.073 13.03-27.814 16.461-41.493 3.7771-14.621 6.5965-28.105 12.222-40.444 5.4436-11.986 11.405-23.053 19.139-32.434 5.4062-6.4781 11.338-12.038 18.205-15.09 5.264-2.4073 11.17-3.2817 16.656-2.427 5.7199 0.81483 11.276 3.443 16.314 6.7334 5.7279 3.7749 10.812 8.5875 15.385 13.686 4.9296 5.5142 9.2565 11.459 13.088 17.501 3.7198 5.8731 6.963 11.827 9.7202 17.826 3.2001 5.4804 5.9973 10.732 8.0579 16.012 89.199-25.953 142.17-43.02 141.67-44.688-0.50217-1.6694-53.876 13.263-138.82 39.691-0.48859-5.0784-1.6011-9.8719-2.9385-14.569-2.7861-6.4326-6.0875-12.815-9.8963-19.1-0.75991-1.2557-1.5612-2.5079-2.3667-3.7588zm-437.03 132.91c-2.93-0.0772-5.7912-0.17464-8.6996-0.25815v11.752c31.016 2.1676 60.819 4.1868 88.531 5.988 6.4421 0.35218 12.802 3.1658 18.125 7.0205 5.2541 4.0868 9.5312 9.0762 10.265 14.461 1.4221 8.1632 4.0189 15.799 6.9674 22.75 3.5218 8.3314 7.6752 16.078 11.889 23.136 10.188 17.068 21.728 31.987 31.344 43.532 11.712 14.069 22.359 25.175 29.747 32.398 4.1002 4.0093 7.3824 7.0002 9.7612 9.0036 0.67606-0.24086 1.3499-0.48601 2.0193-0.74065-0.1547-0.19862-0.27193-0.35983-0.44149-0.57418-1.9035-2.4063-4.8156-5.8934-8.4946-10.314-6.4132-7.7056-16.487-19.795-27.187-34.048-8.8742-11.827-19.67-26.991-28.946-43.744-3.8433-6.9436-7.5928-14.443-10.671-22.321-0.64589-1.6596-1.2695-3.3432-1.8577-5.0495-0.19924 2e-3 -0.40153 6e-3 -0.60072 0.01 0.19711-0.0111 0.39633-0.0246 0.59349-0.0362-1.7438-5.0627-3.1766-10.312-3.959-15.643-1.5717-8.9034-7.0547-16.343-13.961-21.411-6.5481-5.0828-14.749-8.7795-23.78-9.5585-25.367-2.0601-52.449-4.1896-80.644-6.3522zm122.35 52.965c2e-3 9e-3 4e-3 0.0179 7e-3 0.0266 72.241-1.0776 147.69-2.2272 220.77-14.384 0.43497-1.054 0.89859-2.1525 1.3269-3.1942 2.8e-4 -1e-3 2e-3 -0.0138 2e-3 -0.0144 3.7e-4 -1e-3 6e-3 -0.0345 7e-3 -0.0362-0.0194 0.0489-0.0384 0.0992-0.0579 0.14958 0.0441-0.19547 0.0884-0.38929 0.13269-0.58143 0.16941-0.73729 0.34224-1.4704 0.51628-2.1978 0.36052-1.5068 0.74552-2.9822 1.1218-4.4704-73.302 15.97-149.76 20.367-223.83 24.702zm257.39-269.89c-3.1289-0.23438-6.2611-0.47276-9.4017-0.71653-16.963 6.1953-33.877 11.446-49.648 18.113-21.367 9.033-43.36 21.556-69.211 45.049 1e-3 1.8e-4 4e-3 -1.7e-4 5e-3 0 26.305-22.964 48.581-34.814 69.995-43.115 20.294-7.8662 37.236-11.838 58.261-19.332zm-753.21 162.61c-0.06794 0.81568-0.1306 1.6323-0.19541 2.4487 0.01865 0.024 0.02927 0.0458 0.0483 0.0699 1.4115 1.8053 3.3469 3.5971 6.1086 5.4789 5.42 3.7061 11.821 6.6538 21.291 9.8939 9.1894 3.1614 19.267 5.8669 31.785 8.6128 12.254 2.6902 25.424 5.0849 40.56 7.4113 4.9215 0.75658 9.94 1.478 15.011 2.1834 4.8559 0.30672 10.296 0.6733 15.291 0.99397v-7.2352c-10.045-1.015-19.772-2.0934-29.286-3.269-15.135-1.8705-28.154-3.7768-40.408-5.959-12.55-2.2377-22.405-4.384-31.626-6.9771-9.5829-2.7144-15.594-4.9162-21.168-8-2.789-1.5486-4.667-2.8944-6.2002-4.3571-0.4748-0.45633-0.86096-0.88386-1.2111-1.2955zm114.61 36.099c-17.846-1.1272-34.744-2.1611-50.497-3.0881-7.3385-0.0803-13.132 3.7806-16.635 8.2268-4.0998 4.6509-6.8162 10.472-7.3245 16.659-0.29896 4.5533-0.19408 9.053 0.11821 13.399l1.2907 0.67552-1.2762-0.49698c0.41857 5.7084 1.2002 11.14 1.9952 16 1.9632 12.148 4.636 23.456 6.953 32.355 6.9394 23.593 11.294 36.732 12.253 36.485 0.95936-0.24734-1.5811-13.852-6.8926-37.778-1.6757-8.8648-3.7101-20.272-5.0567-32.065-0.95827-8.5175-1.9344-18.455-0.92401-27.853 0.35716-3.9515 2.5469-7.9403 5.6212-11.411 2.8803-2.7809 6.3703-5.4128 9.187-4.7527 20.22 1.767 42.862 3.6591 66.478 5.5947v-9.9276c-5.1899-0.65192-10.285-1.3254-15.291-2.0217zm-74.323 35.375c-0.0049-0.0595-0.0099-0.11883-0.01445-0.17854l-43.327-22.721c-0.0898 1.9941-0.14408 3.987-0.15681 5.9783l43.498 16.922zm805.88-364.17c-12.775-0.03619-22.56 2.8178-29.23 14.367-6.6414 11.499-10.078 31.45-10.514 65.129-0.2733 12.428 3.4026 34.775 7.0832 54.015 3.684 19.257 7.389 35.441 7.2183 35.498l2.5573 1.5971 70.741-14.581-1.3945-6.2992-68.328 16.22c-1.2992-4.9162-4.4716-18.053-7.6309-33.071-4.027-19.143-8.0085-41.285-8.0965-53.361 0.0771-33.602 3.1499-53.26 9.3028-64.62 6.1268-11.312 15.417-14.569 28.292-14.893zm11.969 3.0519c-0.0304 0.1187 6.5962 1.9457 14.084 4.5476 3.7458 1.3016 7.6987 2.793 11.139 4.3595 3.4593 1.5753 6.3314 3.1962 7.9542 4.7238 0.01 0.01 0.0163 0.0146 0.0266 0.0241-0.1045-0.24384-0.20277-0.4795-0.25332-0.68274-0.0276-0.11068-0.0665-0.29753-0.0628-0.50664 1e-3 -0.10253 0.0137-0.28723 0.0868-0.47769 0.0298-0.0774 0.0854-0.16171 0.13993-0.24366-1.8897-1.3247-4.5229-2.6275-7.4499-3.848-3.5304-1.4721-7.556-2.8604-11.349-4.0482-7.5895-2.377-14.286-3.9667-14.316-3.848zm33.115 11.744c0.37427 0.26236 0.73085 0.52517 1.0422 0.7889 0.34172 0.28816 0.59015 0.476 0.83473 0.66103 0.11859-0.12433 0.21233-0.25541 0.25815-0.37394 0.0644-0.1663 0.0723-0.32394 0.0747-0.38842 5e-3 -0.15569-0.0146-0.19671 0-0.193 0.0111 2e-3 0.10091 0.17223 0.2316 0.39806 0.21447 0.37072 0.69848 1.1271 1.1822 1.8794 4e-3 -0.11067-6e-3 -0.20349-0.0145-0.25573-0.0382-0.23275-0.13293-0.45619-0.20989-0.62003-0.0862-0.18358-0.19377-0.37546-0.3088-0.56453-0.22668-0.37251-0.51316-0.78007-0.7696-1.0929-0.12253-0.1494-0.2712-0.319-0.4246-0.45115-0.0725-0.0624-0.19687-0.16135-0.36431-0.23644-0.0999-0.0448-0.59757-0.2624-1.1435 0.0651-0.1773 0.10635-0.29488 0.243-0.38842 0.3836zm3.6236 2.772c-4e-3 0.10339-0.0173 0.2221-0.0651 0.34741-0.13411 0.35164-0.448 0.57288-0.77685 0.61278-0.25009 0.0303-0.44505-0.0468-0.54522-0.0893-0.12576-0.0534-0.22777-0.11141-0.33535-0.18334-0.38053-0.25441-0.97865-0.76947-1.8118-1.5489 0.0221 0.0516 0.0289 0.0912 0.0531 0.14476 0.56164 1.243 1.9712 3.6604 4.9626 8.1882 1.4128 2.1426 3.0812 5.5435 4.9554 9.971 1.8729 4.4245 3.8793 9.7026 5.9855 15.631 4.1954 11.809 8.6799 25.883 12.789 39.414 6.7765 22.314 12.523 43.115 14.261 49.73l-37.373 9.7177 1.585 5.6719 39.047-11.674c1.9445-0.57325 3.333-3.0256 1.5368-2.7141-0.12167 0.0206-7.0718-24.769-15.542-51.814-4.234-13.52-8.8502-27.616-13.187-39.455-2.1601-5.8971-4.279-11.308-6.222-15.742-1.9424-4.4331-3.7779-8.045-5.3993-10.386-1.9569-2.8208-3.0876-4.5299-3.918-5.8215zm-1.7467-1.3221c-0.0684 0.0718-0.13517 0.14491-0.2316 0.20266-0.49405 0.29584-0.90399 0.11043-0.96985 0.0795 0.0211 0.0162 0.024 0.0111 0.0458 0.0289 0.21702 0.18238 0.48944 0.4709 0.71653 0.73824 0.1171 0.1378 0.20619 0.25049 0.27986 0.3474 0.0739 0.0972 0.0986 0.14067 0.0941 0.0676-3.6e-4 -6e-3 -0.0243-0.19098 0.0531-0.39083 0.11611-0.29948 0.39107-0.49087 0.65862-0.52111 0.0867-0.01 0.14379 1e-3 0.1906 0.0123-0.15896-0.0719-0.45816-0.27783-0.83716-0.56455zm0.83717 0.56454c5e-3 2e-3 0.017 0.0125 0.0217 0.0145 0.0582 0.0246 0.0918 0.032 0.0772 0.0193-5.3e-4 -4.2e-4 -0.0379-0.0195-0.0989-0.0337zm-2.0386-0.28227c-0.0739-0.0569-0.15538-0.11821-0.15922-0.10376-8.4e-4 2e-3 0.0171 0.0409 0.1351 0.0965 1e-3 7e-4 0.0215 6e-3 0.0241 7e-3zm2.1231-8.7189c23.608 41.517 42.894 83.631 50.895 127.51 0.0186 0.1024 0.0446 0.18873 0.0603 0.20024 1.4e-4 4e-5 2e-3 4e-5 2e-3 0 1.4e-4 4e-5 2e-3 4e-5 2e-3 0-0.12997 0.0531 3.9413 9.0945 8.5887 20.514 4.6593 11.448 9.8553 25.195 12.005 34.663 3.0479 13.774 5.5058 27.799 3.5223 41.25-3.0448 22.98-15.361 55.826-27.066 83.086-11.503 26.788-22.295 47.922-22.704 48.427 0.99659 0.51276 1.9935 1.022 2.994 1.5271 1.0004 0.5051 2.0053 1.0032 3.0108 1.4982 0.20401-0.71384 10.799-22.067 22.128-49.153 11.46-27.4 23.78-60.907 26.651-84.75 1.5446-14.457-1.6872-29.114-5.2618-42.678-2.4926-9.6926-8.038-23.528-12.948-34.849-4.8683-11.225-9.1306-20.022-9.3559-20.176 9e-3 0.0427 0.0182 0.0851 0.0266 0.12787-1.8e-4 -6e-5 -2e-3 -6e-5 -2e-3 0-1.8e-4 -6e-5 -2e-3 -6e-5 -2e-3 0-0.0148-0.0133-0.0406-0.0992-0.0603-0.20024 1e-3 -6.3e-4 0.0359 0.0705 0.0385 0.0724-8.6096-43.958-28.481-85.922-52.524-127.07zm11.797 13.904c-0.0299 0.0636 2.6683 1.4082 5.8938 3.2618 3.2378 1.8606 6.9663 4.2135 9.0109 6.2774 5.1002 5.0976 8.2454 11.883 11.674 18.379 9.4241 17.345 19.854 34.51 23.739 53.53 0.89328 4.5615 0.78933 11.673 0.41979 17.742-0.26289 4.3174-0.65502 8.0344-0.88058 9.7853l-6.2292 2.1954 1.6236 3.8987 6.7624-3.2762c0.8763-0.42462 1.4481-1.1852 1.0302-1.3703-0.0678-0.0296 0.41549-4.9576 0.64655-11.088 0.22964-6.0922 0.21998-13.496-0.89263-18.413-4.2518-19.391-15.174-36.799-24.741-53.819-3.6425-6.2998-7.1272-13.14-12.567-18.174-2.2254-2.0425-6.103-4.308-9.392-6.0362-3.305-1.7366-6.069-2.9563-6.0989-2.8926zm-677.32 185.29c-2.5691 0.13738-3.5953 22.277-2.8492 53.609 0.12875 3.013 1.0138 5.9265 2.5935 8.4777 1.5949 2.5347 3.6081 4.6197 5.8311 6.2316 4.7981 3.4886 10.372 5.5519 16.072 6.3546 2.3286 0.3746 4.7472 0.55522 7.2111 0.49457 3.5152-0.0866 7.0251-0.661 10.42-1.7732 2.7634-0.90625 5.4505-2.2995 7.8842-4.2123 2.4526-1.9454 4.4338-4.4272 5.7998-7.2666 15.612-33.453 25.428-58.947 22.861-60.205-2.5663-1.2578-16.705 22.119-33.58 54.953-0.56116 1.0928-1.4755 2.1184-2.5742 2.9554-1.13 0.8794-2.5969 1.5565-4.2437 2.1062-2.0955 0.70028-4.3993 1.0343-6.8275 1.0736-1.7011 0.0274-3.4325-0.09-5.146-0.31363-4.1958-0.66145-7.9908-1.8427-10.856-3.889-1.2624-0.90531-2.3094-1.823-2.9481-2.8034-0.60459-0.88632-1.0167-1.8837-1.0977-2.7937-2.5997-31.233-5.981-53.136-8.5501-52.999zm24.297 22.217c-9.4019 0.0257-16.378 1.8156-16.601 4.5766-0.27438 3.3982 9.7822 6.9869 22.449 8.0097 12.667 1.0228 23.171-0.90582 23.445-4.304 0.27438-3.3982-9.7846-6.9845-22.451-8.0072-2.375-0.19176-4.6723-0.28096-6.842-0.27503zm-156.76 56.019c-2.4238 0.0576-3.7272 0.28597-3.7901 0.72135-0.23599 1.6325 19.431 6.2469 51.65 11.139 33.165 5.0355 75.978 9.8222 126.52 13.054 49.438 3.1617 94.7 4.0943 127.12 3.9421 32.562-0.15287 52.703-1.3792 52.738-3.0495 0.0363-1.7374-20.041-3.5995-52.48-5.6816-64.658-4.15-45.015-2.3286-126.59-7.5392-53.974-3.4476-89.352-6.3606-126.29-9.3945-24.241-1.9909-41.602-3.3646-48.873-3.1918zm-95.742 130.1c-1.0293 0.20912-0.54687 7.5522 1.1773 20.384 2.0483 11.27 6.1905 27.689 14.282 45.551 7.004 15.499 17.696 33.333 33.92 48.012 7.6059 6.8564 16.491 12.949 26.504 17.542 5.5068 2.5162 11.299 4.546 17.298 6.0603 5.4279 1.3701 10.896 2.2848 16.328 2.7793 22.888 2.1076 44.326-0.23873 63.204-5.8987 17.961-5.4702 32.752-13.588 44.142-21.846 20.659-20.827 32.419-33.818 31.206-34.888l-2e-3 -2e-3 -2e-3 -2e-3c-1.2494-1.0301-15.189 9.9778-36.425 28.304-11.247 6.8916-25.296 13.561-41.906 17.824-17.702 4.6392-37.641 6.347-59.057 4.263-4.8242-0.47587-9.6719-1.3016-14.468-2.509-5.3015-1.3347-10.405-3.103-15.24-5.2786-8.8093-3.947-16.776-9.256-23.723-15.247-14.877-12.781-25.47-29.111-32.971-43.403-8.5703-16.363-13.989-31.991-17.426-42.55-3.3941-12.36-5.8154-19.304-6.8444-19.095z"
     color="#000000"
     color-rendering="auto"
     image-rendering="auto"
     shape-rendering="auto"
     solid-color="#000000"
     style="block-progression:tb;isolation:auto;mix-blend-mode:normal;text-decoration-color:#000000;text-decoration-line:none;text-decoration-style:solid;text-indent:0;text-transform:none;white-space:normal"
     id="path2" />
  <path
     style="fill:#ffffff;fill-opacity:1;fill-rule:nonzero;stroke:#00ffcc;stroke-width:3.36313891"
     d="m 1018.8182,593.76218 c -6.1015,-5.36157 -10.3813,-14.8669 -14.6841,-32.6128 l -6.07275,-25.04574 22.86155,-10.95609 c 15.64,-7.49529 25.0161,-14.45669 29.6826,-22.0382 7.0584,-11.46759 8.4421,-15.68435 20.5446,-62.60955 3.9697,-15.392 8.4733,-26.72991 10.0078,-25.19536 1.5346,1.53455 5.2896,17.15483 8.3446,34.71173 10.3344,59.39242 1.542,115.92526 -21.9391,141.06185 -7.9557,8.51664 -12.1614,10.25122 -24.8549,10.25122 -11.0511,0 -17.6617,-2.09385 -23.8903,-7.56706 z"
     id="path12"
     inkscape:connector-curvature="0"
     transform="scale(0.9375)" />
  <path
     style="fill:#ffffff;fill-opacity:1;fill-rule:nonzero;stroke:#00ffcc;stroke-width:1.68156946"
     d="m 790.52678,747.85786 c -34.71996,-6.08143 -58.87375,-37.77263 -74.47021,-97.70931 l -3.76086,-14.45286 8.22095,-4.6212 c 12.491,-7.02155 28.88899,-23.34158 39.71415,-39.52537 16.22569,-24.25767 37.64572,-71.16199 44.13726,-96.64916 6.02554,-23.65757 15.08005,-50.10038 22.21525,-64.87751 12.33327,-25.54239 44.09669,-52.73222 58.02783,-49.67243 13.32741,2.92719 20.11505,20.6088 21.65041,56.3987 l 0.97385,22.70119 -9.05963,-9.33366 c -15.34809,-15.81231 -33.95487,-26.33034 -43.86505,-24.79598 -3.14832,0.48744 -1.99854,1.53133 6.16085,5.59348 32.14186,16.00179 58.2326,58.44407 70.15429,114.12122 4.90043,22.88621 5.28958,65.65791 0.78928,86.74939 -10.74814,50.37303 -40.25255,87.50412 -84.00335,105.71762 -22.09821,9.19951 -42.39324,12.89421 -56.88502,10.35588 z"
     id="path16"
     inkscape:connector-curvature="0"
     transform="scale(0.9375)" />
  <path
     style="fill:#ffffff;fill-opacity:1;fill-rule:nonzero;stroke:#00ffcc;stroke-width:1.68156946"
     d="M 95.415354,393.03929 C 49.246501,377.29811 42.699536,371.03356 44.59079,344.40712 c 1.151327,-16.2092 7.738494,-34.07781 16.172659,-43.87061 l 6.428449,-7.46398 14.111727,2.02857 c 7.761452,1.1157 21.764945,2.52489 31.118875,3.13151 l 17.00715,1.10296 3.49904,22.04302 3.49904,22.04303 -10.24915,26.90511 c -5.63703,14.79781 -10.70293,27.38077 -11.25755,27.96214 -0.55463,0.58136 -9.33218,-1.78095 -19.505676,-5.24958 z"
     id="path18"
     inkscape:connector-curvature="0"
     transform="scale(0.9375)" />
  <path
     style="fill:#e3e2db;fill-opacity:1;fill-rule:nonzero;stroke:#00ffcc;stroke-width:1.68156946"
     d="m 516.64851,419.86364 c 0,-0.96303 -1.92116,-14.45882 -4.26924,-29.99064 l -4.26923,-28.23967 15.61983,-25.72919 15.61982,-25.7292 77.3522,1.15392 77.35219,1.15392 4.54177,4.89375 c 9.07108,9.77408 10.31145,30.42087 3.08002,51.26863 -9.52648,27.46424 -26.77907,39.45651 -66.54385,46.25464 -31.08055,5.31348 -118.48351,8.97521 -118.48351,4.96384 z"
     id="path20"
     inkscape:connector-curvature="0"
     transform="scale(0.9375)" />
  <path
     style="fill:#e3e2db;fill-opacity:1;fill-rule:nonzero;stroke:#00ffcc;stroke-width:1.68156946"
     d="M 103.8232,394.37669 C 66.029957,381.27485 55.155792,375.54499 49.035313,365.50764 41.033916,352.38565 48.642261,317.34766 63.293789,299.84445 l 4.102569,-4.90107 16.531852,1.94355 c 9.092519,1.06895 22.77468,2.43734 30.4048,3.04087 7.63012,0.60354 13.87295,1.472 13.87295,1.92993 0,0.45793 1.5491,9.91202 3.44244,21.00909 l 3.44245,20.1765 -9.52973,24.57191 c -5.24135,13.51454 -9.89823,25.51779 -10.34863,26.67386 -0.96402,2.47444 -4.42744,2.50108 -11.38929,0.0876 z"
     id="path22"
     inkscape:connector-curvature="0"
     transform="scale(0.9375)" />
  <path
     style="fill:#e3e2db;fill-opacity:1;fill-rule:nonzero;stroke:#00ffcc;stroke-width:1.68156946"
     d="m 787.38119,218.00693 c -122.68815,-14.48906 -203.44527,-20.02364 -291.7523,-19.99485 -63.88232,0.0208 -141.6162,4.33193 -183.12145,10.15587 -6.38075,0.89534 -11.87428,1.35496 -12.20785,1.02139 -1.18811,-1.18811 34.79273,-38.94383 54.35825,-57.03966 42.32191,-39.14284 77.51896,-61.64288 107.33966,-68.617869 14.89759,-3.484511 17.28917,-3.527179 153.02282,-2.730065 129.02874,0.757739 179.86511,2.301338 236.8329,7.19121 13.13124,1.127131 13.18033,1.149302 12.23126,5.525596 -0.52407,2.416657 -3.60441,19.528048 -6.84518,38.025318 -8.28692,47.29904 -12.65801,68.9891 -16.35091,81.13572 -3.80527,12.51631 2.25622,11.91281 -53.5072,5.32734 z"
     id="path24"
     inkscape:connector-curvature="0"
     transform="scale(0.9375)" />
  <path
     style="fill:#ff2a2a;fill-opacity:1;fill-rule:nonzero;stroke:#00ffcc;stroke-width:1.68156946"
     d="m 944.48957,546.59933 c -6.46523,-28.25164 -18.40925,-58.17631 -30.53189,-76.49484 -4.02088,-6.07597 -4.194,-7.24987 -3.11998,-21.15553 1.29151,-16.72139 -1.10843,-41.94358 -5.11947,-53.80349 -3.688,-10.90469 -7.82366,-16.29364 -15.185,-19.78683 -5.28145,-2.50621 -7.44387,-2.6664 -14.38041,-1.06526 -15.8821,3.66603 -38.9357,22.61232 -51.87616,42.63374 -7.45971,11.54164 -17.77895,36.97704 -24.61589,60.67459 -2.84944,9.87645 -5.70972,16.64653 -7.23487,17.12442 -5.74377,1.79971 -53.10102,9.54669 -77.3522,12.65371 -29.28593,3.75207 -94.31328,9.36999 -126.11771,10.89573 -11.56079,0.55459 -23.39882,1.37485 -26.30672,1.8228 -5.16891,0.79622 -5.33347,0.61611 -7.36053,-8.0566 -4.54359,-19.4396 -11.08599,-28.53148 -26.02846,-36.17137 -6.78527,-3.46923 -12.62657,-4.67145 -30.26825,-6.22967 -20.8688,-1.84326 -18.31351,-1.98244 56.33257,-3.06833 106.77938,-1.55333 158.12711,-5.24979 171.93749,-12.37756 3.00745,-1.55219 10.45413,-7.81515 16.54817,-13.91768 12.75429,-12.77202 17.24345,-22.61415 27.33487,-59.92927 7.65953,-28.32272 11.17825,-37.51442 20.25131,-52.90118 10.37495,-17.59457 18.11074,-25.96498 28.85414,-31.22125 25.18913,-12.32388 50.11228,6.1475 77.51187,57.44664 l 8.16939,15.2952 48.88208,-14.63398 c 61.20298,-18.32251 101.61838,-31.74645 101.61838,-33.75246 0,-0.8481 -0.2147,-1.542 -0.4771,-1.542 -2.2955,0 -58.35862,15.96403 -96.96004,27.60945 -26.30698,7.93639 -48.35471,14.42979 -48.99498,14.42979 -0.64028,0 -1.65855,-3.216 -2.26284,-7.14667 -0.60429,-3.93067 -4.11218,-12.82197 -7.79527,-19.75844 -5.75542,-10.83932 -7.63466,-17.33833 -13.37154,-46.24316 -10.27482,-51.76892 -17.55378,-74.1007 -25.54717,-78.37864 -2.95136,-1.57951 -2.78904,-0.97363 1.10788,4.13549 7.72954,10.13396 14.87644,36.30374 22.80136,83.49178 1.00961,6.01161 2.2584,12.35728 2.77506,14.10147 0.51666,1.74421 -4.15045,-2.22421 -10.37137,-8.81872 -30.81881,-32.66957 -64.20045,-30.02893 -90.75139,7.17889 -11.52181,16.14636 -20.29059,36.27801 -28.63076,65.73134 -12.00385,42.39166 -15.15491,48.60748 -30.98409,61.11972 -7.36327,5.82035 -10.03798,6.84161 -22.32238,8.52325 -31.16195,4.26584 -64.54292,5.49204 -173.28543,6.3654 l -113.92633,0.91497 v -8.51457 c 0,-4.68301 -0.86815,-9.05112 -1.9292,-9.70688 -1.06105,-0.65576 -16.38436,-2.02466 -34.05178,-3.04199 -30.87234,-1.77769 -29.0685,-1.84968 46.34627,-1.84968 43.15787,0 79.07951,-0.60868 79.82585,-1.3526 4.05482,-4.04172 -3.65445,-4.98848 -78.22572,-9.60678 -139.20218,-8.62097 -168.06943,-10.56594 -225.52475,-15.19508 -66.34614,-5.34546 -77.35219,-5.82038 -77.35219,-3.33781 0,4.18008 53.91205,13.44235 117.38497,20.16713 17.85613,1.8918 35.63873,3.54269 39.51688,3.66864 4.26809,0.13857 5.47837,0.52706 3.06632,0.98413 -2.19165,0.41531 -31.92949,-0.88464 -66.08406,-2.88881 -48.59088,-2.85127 -62.62998,-3.20345 -64.53912,-1.61901 -1.44827,1.20197 -2.43988,4.99956 -2.43988,9.34404 0,7.04679 -0.17208,7.291 -4.62432,6.56295 -2.54337,-0.4159 -14.08314,-1.96384 -25.64393,-3.43985 -41.814114,-5.33858 -70.818458,-12.24926 -86.180435,-20.53361 -8.868864,-4.78277 -8.683144,-4.06878 -6.241556,-23.9959 2.542978,-20.75464 2.826016,-21.33365 7.232227,-14.79527 5.573084,8.26989 16.249975,15.58616 30.921279,21.1886 14.84006,5.66689 47.502735,12.87095 49.438615,10.90417 0.69213,-0.70317 6.56957,-14.791 13.06099,-31.30628 l 11.80258,-30.02782 -4.79597,-21.26005 c -2.63779,-11.69305 -4.53078,-21.54148 -4.20665,-21.88543 0.32413,-0.34395 20.48675,0.23541 44.80581,1.28746 65.05375,2.81426 148.07576,4.9795 239.27855,6.24048 44.39344,0.61378 88.72672,1.58191 98.51841,2.1514 l 17.80308,1.03544 -16.68529,23.99161 -16.68528,23.9916 5.16973,33.86405 c 2.84335,18.62522 5.36716,34.04271 5.60849,34.26106 0.24132,0.21837 15.57288,1.23588 34.07014,2.26115 59.1877,3.28066 106.50834,-2.11343 133.01438,-15.1623 24.76328,-12.19093 40.03395,-39.62753 40.12835,-72.09814 0.0387,-13.28312 -0.62773,-17.46901 -3.95461,-24.84196 -3.65013,-8.0893 -10.16095,-15.47113 -15.68277,-17.78078 -4.94476,-2.06828 29.73297,-26.83129 53.37759,-38.1164 21.08765,-10.06472 73.96536,-27.19105 83.35413,-26.9972 l 7.73339,0.15975 6.77572,-14.73562 c 3.72664,-8.10467 7.59173,-17.38417 8.5891,-20.62119 3.71607,-12.06086 7.03436,-35.4217 9.55434,-67.26278 1.42732,-18.03483 3.04349,-36.666084 3.59152,-41.402783 l 0.99638,-8.612178 -14.91986,-1.130701 c -26.10538,-1.978395 -29.34134,-2.657138 -27.61502,-5.792267 5.15456,-9.361168 4.43256,-9.184805 25.39344,-6.202822 72.12484,10.260778 121.45096,26.233458 145.87005,47.235331 8.4749,7.28892 8.3432,9.12969 -0.2889,4.03667 -3.35356,-1.97867 -6.09156,-2.9553 -6.08445,-2.1703 0.007,0.78501 3.07171,3.17419 6.81015,5.3093 4.0434,2.30923 9.0386,7.41887 12.3295,12.61177 10.533,16.62097 24.3604,44.09871 28.6588,56.95097 6.2779,18.7706 5.5149,41.74275 -1.3865,41.74275 -1.3331,0 -2.7424,0.94588 -3.1319,2.10196 -0.3894,1.15608 -1.2775,-0.9172 -1.9735,-4.60727 -2.6414,-14.00327 -13.1367,-45.5333 -21.8916,-65.76681 -9.0176,-20.8406 -29.45205,-60.15295 -30.64649,-58.95851 -0.34146,0.34145 4.26697,10.00119 10.24093,21.46609 15.13126,29.03906 28.66986,63.23273 35.40846,89.42892 3.1438,12.22161 9.545,31.74029 14.2249,43.37483 10.9828,27.30425 15.2588,43.98132 16.3496,63.76554 0.7803,14.15264 0.2861,18.24856 -4.3318,35.90689 -6.0244,23.03629 -22.6672,65.97432 -38.1802,98.50427 -8.0949,16.97452 -10.243,22.92806 -8.6449,23.96026 1.1696,0.7554 3.1483,1.18524 4.3972,0.95518 4.7935,-0.88301 38.1034,-80.54696 47.2848,-113.0864 10.8772,-38.54938 7.9983,-63.51913 -12.8804,-111.71421 -8.1164,-18.73546 -8.137,-17.72605 0.4684,-22.91234 2.4852,-1.49773 2.978,-4.36822 3.0574,-17.80866 0.09,-15.15169 0.2442,-15.83195 2.8442,-12.50782 8.4561,10.81135 16.5214,32.6738 19.287,52.28083 1.1662,8.26828 1.131,8.359 -2.1188,5.46511 -8.5833,-7.64317 -7.354,-1.42211 4.325,21.88626 14.4479,28.83446 24.2185,62.6126 18.1111,62.6126 -3.7725,0 -11.1336,9.69358 -16.6003,21.8604 -7.599,16.9122 -22.4708,63.11264 -26.5486,82.47471 -8.438,40.0658 -12.209,46.74533 -32.2506,57.12645 -16.0232,8.29959 -58.03651,31.30164 -67.30178,36.84729 l -6.24166,3.73591 z M 311.86521,394.63548 c 11.01467,-3.05906 15.29852,-8.39364 25.53475,-31.79764 10.80089,-24.69506 16.13631,-39.36103 16.13631,-44.35534 0,-3.31967 -0.0847,-3.31337 -3.92191,0.29141 -2.15703,2.02645 -7.24102,9.31465 -11.29774,16.19602 -6.40231,10.86017 -7.71577,12.21623 -9.95106,10.27385 -4.65817,-4.04779 -15.2576,-6.38068 -29.28354,-6.44518 -7.59518,-0.035 -15.31488,0.74217 -17.15488,1.72692 -3.13544,1.67804 -3.47108,1.00083 -5.34667,-10.78739 -2.31157,-14.52844 -3.31216,-16.86397 -6.0513,-14.12491 -2.16288,2.16282 -3.79784,50.29804 -2.02873,59.72822 2.75309,14.67522 24.75234,24.46322 43.36477,19.29404 z M 944.33069,269.43256 c 20.08221,-4.16188 36.87299,-7.56706 37.31284,-7.56706 1.26316,0 0.88296,-3.99166 -0.60323,-6.33304 -1.04987,-1.65401 -9.3369,-0.22175 -37.13659,6.41835 -19.68183,4.70109 -35.99198,8.30767 -36.24477,8.01461 -0.84398,-0.97839 -10.93235,-49.08401 -13.68866,-65.27328 -2.07149,-12.16692 -2.49552,-22.18795 -1.77887,-42.03924 1.65924,-45.96097 8.20694,-60.90254 29.15616,-66.533212 4.46943,-1.20128 6.61283,-2.230997 4.7631,-2.288263 -6.0966,-0.18874 -15.79032,3.302079 -20.74362,7.470005 -10.92403,9.19196 -17.05993,34.58581 -17.23715,71.3372 -0.10947,22.68404 1.77688,38.74971 8.69927,74.09274 4.91919,25.11557 6.42563,30.26825 8.84919,30.26825 1.17659,0 18.57014,-3.40517 38.65233,-7.56706 z m 64.38421,-15.27305 c 10.9843,-3.31344 20.4983,-6.52944 21.1421,-7.14668 1.3374,-1.28206 -11.0518,-43.40245 -24.8471,-84.47453 -11.44934,-34.08775 -19.61249,-50.00899 -27.71888,-54.0624 -7.0066,-3.50349 -32.05423,-11.752805 -32.95383,-10.853192 -0.35416,0.354145 5.99388,3.046352 14.10677,5.982682 17.83847,6.45637 18.60407,7.02374 25.24568,18.70899 8.52178,14.99324 41.53396,117.51017 38.73996,120.30416 -0.5067,0.50664 -8.9493,3.02176 -18.7615,5.58917 -9.81216,2.56738 -18.24128,5.06897 -18.73137,5.55906 -1.18114,1.18114 0.87346,6.41716 2.51807,6.41716 0.70871,0 10.27576,-2.71099 21.2601,-6.02442 z"
     id="path26"
     inkscape:connector-curvature="0"
     transform="scale(0.9375)" />
  <path
     style="fill:#ff2a2a;fill-opacity:1;fill-rule:nonzero;stroke:#00ffcc;stroke-width:1.68156946"
     d="m 789.13894,746.0352 c -21.37633,-4.28452 -41.29657,-22.23398 -54.52981,-49.13502 -7.06764,-14.36736 -19.56297,-51.53206 -19.51404,-58.04039 0.0122,-1.61877 4.07449,-5.38192 9.42466,-8.73058 11.24739,-7.03972 28.79369,-25.19637 37.76874,-39.0825 17.04007,-26.3643 35.2637,-67.53162 45.35423,-102.45556 13.8089,-47.79343 21.96452,-65.14531 39.13484,-83.26324 26.53608,-28.00057 43.01195,-30.62951 51.40315,-8.20203 3.63802,9.7235 6.87249,32.11558 6.89655,47.74462 l 0.0135,8.96257 -10.50981,-9.3682 c -5.7804,-5.1525 -14.80874,-11.66154 -20.06299,-14.46452 -9.6606,-5.15365 -21.51064,-7.31406 -22.65124,-4.12961 -0.34155,0.95358 4.4946,4.66321 10.747,8.24362 45.83108,26.24497 76.33525,104.58941 69.44561,178.35837 -4.45764,47.72883 -25.97719,86.59449 -61.21003,110.54912 -24.8327,16.88361 -61.1961,27.12515 -81.7107,23.01335 z"
     id="path28"
     inkscape:connector-curvature="0"
     transform="scale(0.9375)" />
  <path
     style="fill:#ff2a2a;fill-opacity:1;fill-rule:nonzero;stroke:#00ffcc;stroke-width:1.68156946"
     d="m 580.93053,649.49948 c -7.65104,-1.18655 -22.40681,-4.92093 -32.7906,-8.29861 -18.26127,-5.94008 -24.54789,-6.82225 -191.9333,-26.93301 -162.84199,-19.5649 -173.45927,-20.64735 -179.92793,-18.34401 -9.14683,3.25699 -27.01409,3.07939 -37.26529,-0.37041 -4.55681,-1.53348 -16.227,-6.94068 -25.93378,-12.01599 L 95.430943,574.3096 89.302312,543.486 c -11.798589,-59.34036 -11.537088,-82.04871 1.020616,-88.62885 3.304402,-1.73148 9.633838,-1.68202 33.589112,0.26247 l 29.51746,2.39599 v 18.92391 c 0,13.79882 0.62512,19.54903 2.3082,21.23211 1.77576,1.77576 31.58648,4.00014 129.23481,9.64307 69.80963,4.03417 128.17238,6.85682 129.695,6.27253 2.32619,-0.89264 2.7684,-3.87417 2.7684,-18.66586 v -17.60354 l 5.4651,0.71232 c 3.0058,0.39178 24.76111,1.88976 48.34512,3.32885 28.03901,1.71094 45.31651,3.49882 49.91978,5.1657 8.06739,2.92129 18.45287,13.5227 19.97191,20.38715 7.64188,34.53335 34.74627,77.14234 77.01062,121.06322 18.9561,19.69908 19.12321,18.63584 -3.48007,22.14287 -14.25307,2.21144 -15.65634,2.18571 -33.73784,-0.61846 z"
     id="path30"
     inkscape:connector-curvature="0"
     transform="scale(0.9375)" />
  <path
     style="fill:#ff2a2a;fill-opacity:1;fill-rule:nonzero;stroke:#00ffcc;stroke-width:1.68156946"
     d="m 625.52282,626.34568 c -20.08788,-24.47198 -38.09844,-49.0498 -48.20652,-65.78423 -9.83384,-16.28044 -19.30623,-36.25397 -17.87302,-37.68717 0.52439,-0.5244 24.59434,-1.52348 53.48878,-2.22019 69.32314,-1.67155 131.20021,-6.22709 170.69723,-12.56714 8.52586,-1.36857 9.02903,-3.96635 -5.39915,27.87437 -19.15938,42.28171 -35.81424,66.00834 -56.56239,80.5792 -14.25094,10.00805 -27.38939,14.65676 -49.67864,17.57753 -9.9663,1.30599 -19.44315,3.6342 -23.6908,5.82022 -3.89383,2.00392 -7.42788,3.6435 -7.85345,3.6435 -0.42557,0 -7.14049,-7.75624 -14.92204,-17.23609 z"
     id="path32"
     inkscape:connector-curvature="0"
     transform="scale(0.9375)" />
  <path
     style="fill:#ff2a2a;fill-opacity:1;fill-rule:nonzero;stroke:#00ffcc;stroke-width:1.68156946"
     d="m 289.63663,493.82194 c -57.80395,-3.52246 -109.0708,-6.45435 -113.92633,-6.5153 l -8.82824,-0.11083 v -27.38048 -27.38047 l 12.19138,0.67126 c 6.70525,0.3692 59.86387,3.43236 118.13025,6.80702 l 105.93888,6.13575 0.46204,27.29974 0.46205,27.29973 -4.66597,-0.21097 c -2.56628,-0.11604 -51.96011,-3.09299 -109.76406,-6.61545 z"
     id="path34"
     inkscape:connector-curvature="0"
     transform="scale(0.9375)" />
  <path
     style="fill:#ff2a2a;fill-opacity:1;fill-rule:nonzero;stroke:#00ffcc;stroke-width:1.68156946"
     d="M 131.93152,670.45552 C 91.951069,659.98068 62.12269,627.58125 41.705217,572.45218 c -3.356633,-9.06322 -6.542454,-18.9004 -7.079602,-21.86041 -0.966898,-5.32817 -0.897914,-5.29376 6.920884,3.45272 9.794336,10.95641 23.825123,21.802 37.053161,28.64155 60.54168,31.303 73.70848,35.01958 97.8016,27.60629 9.81701,-3.02063 9.82841,-3.02003 61.10671,3.21798 28.20833,3.43154 51.50649,6.30449 51.7737,6.38433 0.26721,0.0798 -3.89467,3.68387 -9.24864,8.00896 -5.35395,4.3251 -13.51798,11.02463 -18.1423,14.88785 -16.4366,13.73139 -38.6161,23.48049 -64.65732,28.42042 -19.40933,3.68189 -49.70112,3.33104 -65.30189,-0.75635 z"
     id="path36"
     inkscape:connector-curvature="0"
     transform="scale(0.9375)" />
  <path
     style="fill:#ff2a2a;fill-opacity:1;fill-rule:nonzero;stroke:#00ffcc;stroke-width:1.68156946"
     d="M 80.334698,567.03166 C 53.623317,550.9469 34.158639,523.51725 28.206535,493.57258 c -2.75247,-13.8475 -3.382639,-26.56501 -1.315136,-26.5409 0.693647,0.008 10.694047,3.7071 22.223109,8.22003 l 20.961934,8.20532 2.047223,14.18106 c 2.422745,16.78228 7.252587,36.57634 14.218021,58.26946 2.780079,8.65827 4.76781,16.02919 4.417181,16.37982 -0.350629,0.35063 -5.041505,-2.01444 -10.424169,-5.25571 z"
     id="path38"
     inkscape:connector-curvature="0"
     transform="scale(0.9375)" />
  <path
     style="fill:#ff2a2a;fill-opacity:1;fill-rule:nonzero;stroke:#00ffcc;stroke-width:1.68156946"
     d="m 46.984923,469.16566 -21.52532,-11.10325 1.057612,-20.32587 c 0.581686,-11.17922 1.328605,-21.20809 1.659819,-22.28637 0.3865,-1.25826 5.175015,0.33675 13.368461,4.4529 13.678933,6.8719 29.416749,11.62672 58.914565,17.79967 l 18.49727,3.87089 -15.49601,0.10991 c -14.912586,0.10576 -15.723026,0.30923 -21.525909,5.40423 -7.714005,6.77298 -10.740517,12.73122 -12.229971,24.07691 l -1.195197,9.10424 z"
     id="path40"
     inkscape:connector-curvature="0"
     transform="scale(0.9375)" />
  <path
     style="fill:#ff2a2a;fill-opacity:1;fill-rule:nonzero;stroke:#00ffcc;stroke-width:1.68156946"
     d="M 652.85563,297.92156 C 651.46834,297.61998 597.74219,296.55398 533.4642,295.55267 216.70665,290.6183 99.77839,287.1541 81.507928,282.16268 c -4.45657,-1.21752 -4.244407,-1.4784 7.307059,-8.98495 33.661973,-21.87476 91.206513,-38.94374 171.394173,-50.8393 19.00505,-2.81933 31.31767,-5.42933 33.0884,-7.01399 3.44866,-3.08627 3.24694,-3.07847 122.45678,-4.73839 116.35492,-1.62017 164.50883,0.3897 281.66288,11.75617 23.12158,2.24329 57.17336,5.29162 75.67063,6.77407 18.49726,1.48245 35.52315,3.09342 37.83531,3.57993 3.22863,0.67935 -1.06267,2.80175 -18.49726,9.1484 -39.64416,14.43152 -65.98366,28.98939 -87.7111,48.47804 l -9.51811,8.53737 -19.90936,-0.19507 c -10.95014,-0.10728 -21.0444,-0.44181 -22.4317,-0.7434 z"
     id="path42"
     inkscape:connector-curvature="0"
     transform="scale(0.9375)" />
  <path
     style="fill:#808080;fill-opacity:1;fill-rule:nonzero;stroke:#00ffcc;stroke-width:1.68156946"
     d="m 799.99296,76.803442 c -50.21703,-3.827851 -109.9193,-5.639089 -185.81343,-5.637179 -46.70559,0.0012 -80.75737,-0.558848 -75.67062,-1.244497 71.91239,-9.693167 189.15612,-12.529265 263.60661,-6.376582 l 25.66454,2.12095 -0.441,6.451683 c -0.50304,7.359421 2.0322,6.92502 -27.3461,4.685625 z"
     id="path44"
     inkscape:connector-curvature="0"
     transform="scale(0.9375)" />
  <path
     style="fill:#808080;fill-opacity:1;fill-rule:nonzero;stroke:#00ffcc;stroke-width:1.68156946"
     d="m 1025.1359,594.97639 c -9.4826,-5.78233 -14.6768,-16.20395 -20.1892,-40.50776 -1.3648,-6.01714 -2.8599,-12.21529 -3.3224,-13.77368 -0.6544,-2.20477 3.3737,-4.98878 18.1552,-12.54783 32.2318,-16.4828 35.9608,-21.77966 49.0929,-69.73472 8.4158,-30.73207 10.7417,-37.71855 12.1036,-36.35664 2.0156,2.01566 8.9469,45.31261 10.0243,62.61769 2.8356,45.54835 -9.2262,91.29614 -28.3978,107.70634 -6.4327,5.50613 -7.4197,5.79928 -19.505,5.79331 -9.5321,-0.005 -14.0437,-0.80765 -17.9616,-3.19671 z"
     id="path46"
     inkscape:connector-curvature="0"
     transform="scale(0.9375)" />
  <path
     style="fill:#808080;fill-opacity:1;fill-rule:nonzero;stroke:#00ffcc;stroke-width:1.68156946"
     d="M 778.13256,740.47573 C 753.354,728.78366 736.62395,704.51776 722.41993,659.66795 l -6.35544,-20.06757 7.42292,-5.99676 c 16.47116,-13.3066 31.05483,-28.56057 39.49444,-41.30972 16.66969,-25.18181 34.19108,-64.17444 45.33691,-100.89417 11.6484,-38.37548 19.53767,-57.79691 29.33781,-72.22243 5.65253,-8.32037 24.13616,-26.2236 31.61627,-30.62349 17.86512,-10.50849 26.91052,-2.13526 31.64837,29.29653 2.55316,16.93803 3.22403,30.66937 1.49842,30.66937 -0.54441,0 -4.89547,-3.43066 -9.66903,-7.62369 -11.10843,-9.75753 -26.66526,-17.59985 -34.91284,-17.59985 -11.94026,0 -10.73654,1.86059 11.41848,17.64959 48.05041,34.2436 74.30598,128.3291 55.94023,200.45893 -7.0243,27.58734 -25.83738,57.30612 -46.63751,73.67269 -31.19206,24.54346 -77.44686,36.24153 -100.4264,25.39835 z"
     id="path48"
     inkscape:connector-curvature="0"
     transform="scale(0.9375)" />
  <path
     style="fill:#333333;fill-opacity:1;fill-rule:nonzero;stroke:#00ffcc;stroke-width:1.68156946"
     d="m 144.18087,671.10692 c -29.88525,-4.62406 -59.319474,-24.23663 -76.973462,-51.28883 -11.017883,-16.88333 -29.8062,-58.31631 -29.8062,-65.73019 0,-1.00255 4.351061,2.30501 9.669024,7.35013 13.999756,13.28149 22.437431,18.56743 54.753838,34.30156 39.9944,19.47236 51.31937,22.06226 72.38232,16.55301 7.00495,-1.83221 13.85193,-2.39616 21.26235,-1.75126 23.7407,2.06608 89.11961,10.20337 89.06165,11.08493 -0.0338,0.51473 -7.41172,6.84787 -16.3953,14.07365 -30.34851,24.41026 -58.53395,34.77106 -97.04911,35.67468 -12.02322,0.28208 -24.13052,0.16163 -26.90511,-0.26768 z"
     id="path50"
     inkscape:connector-curvature="0"
     transform="scale(0.9375)" />
  <path
     style="fill:#333333;fill-opacity:1;fill-rule:nonzero;stroke:#00ffcc;stroke-width:1.68156946"
     d="m 745.34195,748.9025 c -27.01787,-8.14297 -46.7215,-21.92949 -60.25042,-42.15691 -10.61073,-15.86436 -16.25175,-30.68568 -21.32021,-56.01715 l -1.09349,-5.4651 9.80263,-0.0969 c 8.75187,-0.0865 26.64859,-3.90534 34.60579,-7.38418 2.59432,-1.13422 2.94705,-0.21998 2.97914,7.7216 0.02,4.95448 1.46967,15.48841 3.22145,23.40872 8.02281,36.27343 23.65243,63.28708 46.36439,80.13444 4.26076,3.16056 4.51514,3.72463 1.66563,3.69343 -1.84972,-0.0203 -9.03843,-1.74732 -15.97491,-3.83791 z"
     id="path52"
     inkscape:connector-curvature="0"
     transform="scale(0.9375)" />
  <path
     style="fill:#333333;fill-opacity:1;fill-rule:nonzero;stroke:#00ffcc;stroke-width:1.68156946"
     d="m 1026.5116,593.69184 c -7.1683,-3.5329 -12.5691,-12.9779 -17.8276,-31.17714 -7.0431,-24.37575 -7.8509,-22.1961 12.3256,-33.2568 9.6507,-5.29048 20.4523,-12.05843 24.0035,-15.03989 9.2157,-7.73703 15.3787,-21.28538 25.1371,-55.26003 4.7039,-16.37697 9.0913,-30.36943 9.7497,-31.09434 2.2769,-2.50708 10.0788,50.97959 10.1262,69.42158 0.068,26.3023 -7.235,61.06489 -16.3435,77.80025 -2.4214,4.44892 -7.6547,11.08671 -11.6296,14.75065 -6.9506,6.40681 -7.6629,6.66024 -18.6153,6.62341 -7.0398,-0.0237 -13.5027,-1.08046 -16.9261,-2.76769 z"
     id="path54"
     inkscape:connector-curvature="0"
     transform="scale(0.9375)" />
  <path
     style="fill:#00ff00;fill-opacity:1;fill-rule:nonzero;stroke:#00ffcc;stroke-width:1.68156946"
     d="m 581.30588,647.8511 c -6.51973,-1.18436 -18.62703,-4.09958 -26.90511,-6.47824 -28.3441,-8.14452 -39.00468,-9.6777 -205.90921,-29.61333 -158.79268,-18.96672 -162.16053,-19.29094 -175.17412,-16.86388 -19.33842,3.60666 -29.27546,1.65113 -54.44304,-10.71394 l -22.18359,-10.899 -5.254269,-27.48893 c -7.200548,-37.67136 -9.08561,-53.10885 -8.38065,-68.63236 0.514341,-11.32599 1.211439,-13.90882 4.799037,-17.781 l 4.197287,-4.53024 18.497265,1.08008 c 10.17349,0.59404 23.54244,1.54265 29.70877,2.10802 l 11.21151,1.02794 0.55948,19.17383 c 0.40045,13.72379 1.20008,19.56889 2.81318,20.5637 3.86384,2.38286 56.59275,6.18172 164.22167,11.83137 35.14481,1.84482 71.23398,3.78932 80.19815,4.32111 19.81838,1.17572 19.85524,1.13695 19.85524,-20.88156 v -15.20263 l 4.62431,0.7533 c 2.54338,0.41432 17.86668,1.55699 34.05178,2.53926 40.73956,2.4725 60.00696,4.66569 65.28551,7.43139 8.70424,4.5606 14.9926,13.13398 18.59044,25.34571 9.65634,32.77551 33.03574,68.46669 73.3984,112.05065 10.8879,11.75684 15.30715,17.63586 13.85526,18.43191 -2.80788,1.53953 -25.01904,4.92552 -31.04066,4.73202 -2.59744,-0.0834 -10.05693,-1.1208 -16.57664,-2.30518 z"
     id="path85"
     inkscape:connector-curvature="0"
     transform="scale(0.9375)" />
  <path
     style="fill:#00ff00;fill-opacity:1;fill-rule:nonzero;stroke:#00ffcc;stroke-width:1.68156946"
     d="M 286.27349,492.13198 C 229.3944,488.61013 179.64097,485.68039 175.7103,485.62143 l -7.14667,-0.10719 v -25.66522 -25.66521 l 36.57413,2.03393 c 20.11578,1.11866 63.43721,3.6042 96.26985,5.52342 32.83265,1.91921 68.96537,3.96795 80.29495,4.55274 l 20.59922,1.06325 v 25.80482 25.80482 l -6.30588,-0.21573 c -3.46824,-0.11865 -52.84332,-3.09724 -109.72241,-6.61908 z"
     id="path87"
     inkscape:connector-curvature="0"
     transform="scale(0.9375)" />
  <path
     style="fill:#00ff00;fill-opacity:1;fill-rule:nonzero;stroke:#00ffcc;stroke-width:1.68156946"
     d="m 47.490625,467.6878 c -9.711064,-5.15217 -18.303168,-9.9871 -19.093564,-10.74429 -2.223524,-2.13011 0.603902,-40.76088 2.906136,-39.70619 14.939419,6.844 35.581675,14.1126 50.484964,17.77689 18.18332,4.47077 18.397889,4.57881 11.050143,5.56435 -11.109657,1.49012 -20.82359,12.23239 -23.713478,26.22385 -1.170538,5.66719 -2.544382,10.29251 -3.052987,10.27848 -0.508604,-0.014 -8.870151,-4.24092 -18.581214,-9.39309 z"
     id="path89"
     inkscape:connector-curvature="0"
     transform="scale(0.9375)" />
  <path
     style="fill:#00ff00;fill-opacity:1;fill-rule:nonzero;stroke:#00ffcc;stroke-width:1.68156946"
     d="M 77.758875,563.29148 C 62.336492,553.37891 48.435219,537.58028 39.872201,520.23374 32.125187,504.54022 26.729743,484.3345 27.648257,474.45557 l 0.504319,-5.42412 20.20878,7.66487 20.208783,7.66488 2.987429,18.33855 c 1.643087,10.08621 6.034186,28.95755 9.757998,41.93632 3.723812,12.97876 6.527876,23.82323 6.231254,24.09882 -0.296622,0.27558 -4.701197,-2.17395 -9.787945,-5.44341 z"
     id="path91"
     inkscape:connector-curvature="0"
     transform="scale(0.9375)" />
  <path
     style="fill:#00ff00;fill-opacity:1;fill-rule:nonzero;stroke:#00ffcc;stroke-width:1.68156946"
     d="M 133.25067,432.43049 C 101.39792,427.89371 83.331978,424.6814 67.424864,420.72595 51.704249,416.81689 33.316503,409.39421 31.309718,406.14716 c -0.540857,-0.87512 -0.07493,-9.00711 1.035404,-18.07107 l 2.01878,-16.47995 6.530027,7.08425 c 11.727896,12.72326 46.033865,26.05742 68.613201,26.6688 l 10.72863,0.2905 12.37149,-30.55773 12.37148,-30.55773 -4.18246,-18.52806 c -2.30036,-10.19044 -4.18246,-19.80507 -4.18246,-21.36585 0,-2.58436 2.21504,-2.73909 24.80315,-1.73261 56.79588,2.53069 120.85328,4.38028 207.25343,5.98423 50.40505,0.93572 107.72363,2.17411 127.37464,2.75198 l 35.72909,1.05065 -11.27916,16.20931 c -6.20353,8.91512 -13.46774,19.32848 -16.14268,23.14079 l -4.86352,6.93149 4.49109,29.22226 c 2.4701,16.07224 4.90313,30.93862 5.40671,33.0364 0.831,3.4616 0.53101,3.66791 -3.24556,2.23206 -5.44879,-2.07163 -29.90137,-3.96799 -143.3561,-11.11766 -51.79234,-3.26384 -118.38249,-7.81213 -147.97811,-10.10732 -65.60077,-5.08745 -88.49146,-5.83124 -89.50909,-2.90844 -1.4527,4.17235 15.45997,8.17364 65.56402,15.51148 l 32.35291,4.73816 -33.45681,-0.93042 c -31.22838,-0.86844 -33.60845,-0.72304 -35.73335,2.18294 -1.2521,1.71234 -2.27654,5.61719 -2.27654,8.67744 0,3.06025 -0.56753,5.48279 -1.26118,5.38341 -0.69364,-0.0994 -8.44988,-1.20456 -17.23608,-2.45598 z m 185.81179,-39.17926 c 6.79211,-3.94923 12.41417,-12.78279 21.54661,-33.8547 9.96074,-22.98312 15.30258,-39.4873 13.93456,-43.05232 -0.97958,-2.55271 -1.53749,-2.43826 -5.28739,1.08459 -2.30576,2.16613 -6.58421,7.7656 -9.5077,12.44327 -9.01768,14.42858 -9.08698,14.47956 -15.31854,11.26922 -4.07932,-2.10156 -10.08358,-2.76438 -25.04161,-2.76438 h -19.67571 l -1.90058,-11.2578 c -1.04533,-6.19179 -2.87392,-12.06559 -4.06355,-13.0529 -4.62379,-3.8374 -6.10219,2.66125 -7.13305,31.35484 -1.14545,31.88367 0.13033,37.52308 10.09336,44.6174 11.38114,8.1041 31.33766,9.61793 42.3536,3.21278 z"
     id="path93"
     inkscape:connector-curvature="0"
     transform="scale(0.9375)" />
  <path
     style="fill:#00ff00;fill-opacity:1;fill-rule:nonzero;stroke:#00ffcc;stroke-width:1.68156946"
     d="m 943.86068,538.06328 c -3.32502,-15.14196 -13.02586,-40.04508 -22.77575,-58.46783 l -8.91701,-16.84897 -0.0118,-22.66791 c -0.0188,-37.67668 -6.15518,-57.52959 -20.17154,-65.26145 -6.58257,-3.63117 -7.86291,-3.7955 -15.42922,-1.98037 -14.87979,3.56961 -35.13732,18.64934 -48.15438,35.84618 -9.3668,12.37446 -16.79042,28.01654 -25.04192,52.76499 -3.33396,9.99945 -7.17825,21.2862 -8.54287,25.08167 l -2.48113,6.90084 -20.55402,3.55038 c -50.26985,8.68332 -105.96395,14.82361 -170.21371,18.76608 -15.72267,0.96477 -31.76265,2.16453 -35.64438,2.66613 l -7.05771,0.912 -1.88291,-7.23637 c -6.24271,-23.9934 -18.38393,-37.16031 -38.20577,-41.43384 -4.04171,-0.87137 13.73951,-1.80498 49.15978,-2.58112 90.20995,-1.97674 134.42159,-4.98219 153.55867,-10.43868 7.26785,-2.07227 11.23445,-4.81938 21.1692,-14.66093 14.65661,-14.51913 18.3811,-21.88411 27.80905,-54.99087 9.3578,-32.8604 14.00085,-45.23964 22.29334,-59.43834 9.41395,-16.11893 19.75599,-26.83041 30.27345,-31.3549 23.61342,-10.15822 46.58366,8.43177 75.19217,60.85361 3.88485,7.11851 7.962,12.64335 9.06238,12.28016 1.1002,-0.36313 18.64788,-5.66853 38.99487,-11.78979 56.48653,-16.99359 94.70273,-29.31277 104.83763,-33.79489 l 9.1685,-4.05475 -0.9729,14.73179 c -1.5676,23.7363 -17.4229,69.9769 -43.1061,125.71538 -4.6878,10.1735 -8.5292,19.74055 -8.5365,21.2601 -0.018,3.72157 4.8402,5.3687 8.0557,2.73127 5.8232,-4.77624 32.9323,-68.16771 43.6988,-102.18435 7.515,-23.74367 9.4076,-34.4386 9.225,-52.12865 -0.1992,-19.2913 -3.9207,-34.45872 -15.5949,-63.55933 -4.6218,-11.52113 -8.4034,-21.89915 -8.4034,-23.06228 0,-1.16313 1.8918,-3.35431 4.2039,-4.8693 3.9069,-2.5599 4.204,-3.70923 4.204,-16.26755 0,-9.57653 0.5507,-13.17264 1.8906,-12.34457 3.2751,2.02416 11.4984,22.09523 14.9484,36.48549 3.8837,16.19934 4.0162,17.70378 1.3219,15.0095 -2.9179,-2.91791 -6.3899,-2.47706 -6.3899,0.81133 0,1.55606 4.4361,12.33913 9.8581,23.96236 9.3252,19.99073 17.1744,41.42404 19.5736,53.4481 0.9448,4.73511 0.329,6.06875 -4.9379,10.69312 -3.4032,2.98804 -8.4798,10.50004 -11.6855,17.29136 -7.7569,16.43297 -21.742,59.81198 -28.8177,89.38639 -9.4454,39.4793 -10.8661,41.30613 -47.0495,60.49848 -10.17353,5.39623 -26.31022,14.22761 -35.85935,19.62533 -9.54915,5.39772 -17.94167,9.81403 -18.65007,9.81403 -0.70841,0 -2.24347,-4.35106 -3.41123,-9.66903 z"
     id="path95"
     inkscape:connector-curvature="0"
     transform="scale(0.9375)" />
  <path
     style="fill:#00ff00;fill-opacity:1;fill-rule:nonzero;stroke:#00ffcc;stroke-width:1.68156946"
     d="m 419.11748,443.7964 c 0,-8.53323 -2.83272,-11.78955 -10.9302,-12.5647 -9.16347,-0.87721 97.49385,-1.82325 114.34672,-1.01424 31.37703,1.50621 99.74602,0.55433 113.50594,-1.58032 18.28496,-2.83664 41.99074,-10.71537 51.1017,-16.98387 21.93517,-15.0918 33.01309,-38.86436 32.93984,-70.68691 -0.0425,-18.48253 -3.05235,-27.24801 -12.79536,-37.26413 l -5.922,-6.088 7.27519,-5.90947 c 10.13837,-8.23519 28.64303,-19.9187 42.58814,-26.8894 23.37457,-11.68419 74.66213,-28.1734 87.62973,-28.1734 4.05841,0 7.37894,-0.65489 7.37894,-1.45532 0,-0.80042 2.55183,-6.96455 5.67074,-13.69806 l 5.67072,-12.24275 4.28189,7.39218 c 7.37948,12.73986 14.72313,40.74322 22.19722,84.64427 l 1.12809,6.62617 -10.86164,-10.16054 c -14.01862,-13.11372 -23.95145,-17.94074 -38.67169,-18.79311 -10.15754,-0.58817 -12.62094,-0.073 -22.19832,4.64188 -18.03332,8.87778 -35.34351,31.02931 -46.18899,59.10723 -2.70546,7.00416 -8.44881,24.40841 -12.76301,38.6761 -11.02711,36.46823 -15.4466,44.4562 -30.22901,54.63725 -7.92481,5.45802 -10.32741,6.14481 -29.51201,8.43611 -24.61552,2.93996 -124.66778,5.6137 -213.00417,5.69223 l -62.63846,0.0557 z"
     id="path97"
     inkscape:connector-curvature="0"
     transform="scale(0.9375)" />
  <path
     style="fill:#00ff00;fill-opacity:1;fill-rule:nonzero;stroke:#00ffcc;stroke-width:1.68156946"
     d="m 638.55369,639.54628 c -0.92013,-1.29465 -9.08285,-11.48767 -18.13936,-22.65114 -9.05652,-11.16348 -22.07534,-28.30913 -28.93071,-38.10144 -12.78655,-18.26451 -31.03008,-51.88497 -29.16596,-53.7491 0.57376,-0.57376 22.88212,-1.76745 49.57412,-2.65263 72.97565,-2.42008 148.5917,-8.0272 171.03249,-12.68248 4.40134,-0.91305 4.69617,-0.67192 3.61901,2.95988 -2.47107,8.33159 -26.0596,55.4819 -33.54765,67.05724 -15.32792,23.69454 -34.7039,40.15222 -55.13073,46.82725 -5.7954,1.89381 -17.7258,4.66054 -26.512,6.14829 -8.7862,1.48775 -19.28711,4.16594 -23.33534,5.95153 -8.74715,3.85817 -7.44357,3.73522 -9.46387,0.8926 z"
     id="path99"
     inkscape:connector-curvature="0"
     transform="scale(0.9375)" />
  <path
     style="fill:#00ff00;fill-opacity:1;fill-rule:nonzero;stroke:#00ffcc;stroke-width:1.68156946"
     d="m 650.33328,296.19434 c -1.84973,-0.28936 -54.81917,-1.34274 -117.70986,-2.34085 -307.8158,-4.88518 -444.150323,-8.93629 -448.626573,-13.3307 -1.580934,-1.55204 7.6106,-7.85438 22.184773,-15.2114 32.83927,-16.57721 80.04312,-29.30614 153.18676,-41.30815 15.26024,-2.50403 30.39437,-5.69219 33.63139,-7.0848 4.82654,-2.07644 22.67734,-2.8459 99.2126,-4.27655 93.21511,-1.74244 166.37914,-0.45618 220.2856,3.87275 26.22397,2.1059 190.00969,16.70788 193.20757,17.22502 1.2922,0.20897 -6.27486,3.70331 -16.8157,7.76519 -39.53322,15.23407 -62.44735,27.97136 -84.67356,47.06756 l -10.01664,8.60605 -20.25161,-0.229 c -11.13838,-0.12595 -21.76503,-0.46575 -23.61475,-0.75512 z"
     id="path101"
     inkscape:connector-curvature="0"
     transform="scale(0.9375)" />
  <path
     style="fill:#00ff00;fill-opacity:1;fill-rule:nonzero;stroke:#00ffcc;stroke-width:1.68156946"
     d="m 909.28902,353.99771 c -0.62869,-3.04226 -4.04262,-11.96339 -7.58652,-19.82472 -3.7892,-8.4055 -8.22895,-22.60559 -10.77795,-34.47218 -13.8395,-64.42827 -21.02336,-87.02691 -28.87393,-90.8302 -3.28292,-1.59044 -3.37278,-2.14247 -1.31589,-8.08366 3.24666,-9.37776 6.88264,-35.96201 10.70444,-78.26487 1.861,-20.59909 3.38363,-38.406841 3.38363,-39.572785 0,-1.495868 -5.92737,-2.604175 -20.13597,-3.765047 -11.07479,-0.904833 -20.6551,-2.164268 -21.28957,-2.798746 -0.63448,-0.634477 0.24315,-2.696986 1.95029,-4.583353 3.47809,-3.843246 3.14977,-3.859913 38.63447,1.961307 25.05474,4.1102 52.04154,10.243006 70.21198,15.955817 19.07967,5.998674 40.4566,15.907117 38.51267,17.851037 -0.95704,0.95704 -3.52705,0.54062 -6.65897,-1.07896 -10.06381,-5.2042 -31.13285,-11.239988 -32.93712,-9.435718 -1.17948,1.179482 0.0733,2.386063 3.95957,3.813478 3.12673,1.14844 10.97872,4.35819 17.44885,7.13278 10.99463,4.71483 12.12233,5.70447 17.24544,15.13413 8.78006,16.16067 41.35516,115.42932 38.73736,118.04718 -1.5795,1.5795 -35.22664,10.86853 -44.78483,12.36381 -5.08675,0.79579 -17.5724,3.42008 -27.7459,5.83178 -10.17349,2.41171 -23.18563,5.37023 -28.91586,6.5745 l -10.41861,2.18958 -1.8782,-8.60379 c -12.76904,-58.49337 -12.38829,-55.79033 -12.34464,-87.63755 0.0698,-50.93807 5.7646,-66.70553 26.69058,-73.899535 3.6136,-1.242297 6.84891,-3.094887 7.18956,-4.116868 1.58187,-4.745579 -17.94848,0.838685 -24.57592,7.026933 -20.44318,19.08845 -22.58738,86.41433 -5.13897,161.35903 1.88219,8.08442 4.11493,15.1271 4.96166,15.65039 2.13339,1.31852 79.6104,-14.33821 80.30738,-16.22868 0.31021,-0.84141 1.28142,-1.08644 2.15825,-0.54454 2.4906,1.53927 43.7475,-11.36919 44.7586,-14.00408 1.0871,-2.83287 -3.5,-20.00714 -15.7699,-59.04296 -5.0485,-16.06148 -8.8761,-29.50563 -8.5059,-29.87589 1.2947,-1.29469 16.0952,39.09102 22.2673,60.76015 3.4246,12.02322 9.9079,31.7275 14.4072,43.78726 11.5395,30.93003 18.2254,58.48875 13.4779,55.55462 -1.9095,-1.18016 -94.09724,24.73696 -143.41482,40.3188 -2.09262,0.66116 -3.08171,-0.50647 -3.93766,-4.64845 z"
     id="path103"
     inkscape:connector-curvature="0"
     transform="scale(0.9375)" />
  <path
     style="fill:#1a1a1a;fill-opacity:1;fill-rule:nonzero;stroke:#00ffcc;stroke-width:1.68156946"
     d="m 1038.9174,231.17686 c -9.6338,-34.11115 -24.7231,-73.47042 -37.109,-96.79604 -3.21947,-6.06297 -5.50909,-11.36805 -5.08806,-11.78907 1.61743,-1.61744 13.21106,8.90903 17.97356,16.31925 9.6689,15.04401 27.7252,53.53052 29.6793,63.26034 2.4348,12.12387 2.5288,23.55762 0.229,27.85489 -1.9793,3.69822 -4.8038,4.26993 -5.6848,1.15063 z"
     id="path105"
     inkscape:connector-curvature="0"
     transform="scale(0.9375)" />
  <path
     style="fill:#1a1a1a;fill-opacity:1;fill-rule:nonzero;stroke:#00ffcc;stroke-width:1.68156946"
     d="m 781.93728,740.24889 c -9.18595,-3.3742 -20.19417,-11.427 -28.09695,-20.55369 -9.30222,-10.74284 -21.8379,-36.03687 -29.70269,-59.93298 l -6.43969,-19.56616 6.67533,-5.4241 c 40.223,-32.68357 58.56908,-64.08191 87.62445,-149.96452 7.79745,-23.04789 16.80831,-46.88413 20.02413,-52.96944 7.21691,-13.65655 19.46999,-27.74767 32.92004,-37.85826 16.48971,-12.39554 25.54469,-9.98845 30.99432,8.23922 2.97325,9.94485 6.87499,40.73326 5.35469,42.25357 -0.577,0.57699 -4.68741,-2.0057 -9.13427,-5.73931 -11.45188,-9.61506 -25.04,-16.06225 -34.10116,-16.18007 -11.93948,-0.15525 -10.93419,3.92548 3.62926,14.732 36.18098,26.84738 57.40938,66.41983 65.35022,121.82113 2.73087,19.0527 1.22274,65.03369 -2.60527,79.43078 -11.0523,41.56767 -39.35866,76.14363 -75.90144,92.71291 -22.51141,10.20716 -52.33103,14.23691 -66.59097,8.99892 z"
     id="path107"
     inkscape:connector-curvature="0"
     transform="scale(0.9375)" />
  <path
     style="opacity:1;vector-effect:none;fill:#999999;fill-opacity:1;stroke:#000000;stroke-width:0.12300371;stroke-linecap:butt;stroke-linejoin:miter;stroke-miterlimit:4;stroke-dasharray:none;stroke-dashoffset:0;stroke-opacity:1"
     d="m 862.31611,89.536852 32.60596,5.225311"
     id="path109"
     inkscape:connector-curvature="0" />
  <path
     style="opacity:1;vector-effect:none;fill:#000000;fill-opacity:1;stroke:#000000;stroke-width:0.12300371;stroke-linecap:butt;stroke-linejoin:miter;stroke-miterlimit:4;stroke-dasharray:none;stroke-dashoffset:0;stroke-opacity:1"
     d="m 916.10201,242.81273 c 0.29726,-0.22295 0.16257,-0.20902 0.34835,-0.20902 0.0232,0 0.0532,0.0164 0.0697,0 0.0164,-0.0164 -0.0164,-0.0533 0,-0.0697 0.0349,-0.0348 0.17417,0.0349 0.20901,0 0.0164,-0.0164 -0.0164,-0.0533 0,-0.0696 0.0464,-0.0464 0.0929,0.0464 0.13934,0 0.0164,-0.0164 -0.0164,-0.0533 0,-0.0697 0.0216,-0.0216 0.32678,0.0216 0.34835,0 0.0164,-0.0164 -0.0164,-0.0533 0,-0.0697 0.0149,-0.0149 0.24027,0.0127 0.27869,0 0.50466,-0.16822 -0.10985,0.0201 0.20901,-0.13934 0.0208,-0.0104 0.0464,0 0.0697,0 0.0494,0 0.40001,0.009 0.41802,0 0.0294,-0.0147 0.0403,-0.055 0.0697,-0.0696 0.0446,-0.0223 0.37476,0.0216 0.41802,0 0.0294,-0.0147 0.0403,-0.055 0.0697,-0.0697 0.0415,-0.0208 0.0978,0.0208 0.13934,0 0.0293,-0.0147 0.0403,-0.055 0.0697,-0.0697 0.0423,-0.0212 0.37573,0.0212 0.41804,0 0.0293,-0.0147 0.0403,-0.055 0.0697,-0.0696 0.0453,-0.0226 0.30416,0.0221 0.34836,0 0.0293,-0.0147 0.0403,-0.0549 0.0697,-0.0697 0.0557,-0.0278 0.15327,0.0279 0.209,0 0.0294,-0.0147 0.0403,-0.055 0.0697,-0.0696 0.044,-0.0219 0.30439,0.0219 0.34835,0 0.0294,-0.0147 0.0403,-0.055 0.0697,-0.0697 0.0423,-0.0212 0.37572,0.0212 0.41803,0 0.0294,-0.0147 0.0403,-0.055 0.0697,-0.0697 0.0558,-0.0278 0.15328,0.0279 0.20901,0 0.0293,-0.0147 0.0403,-0.055 0.0697,-0.0696 0.0186,-0.009 0.38651,0 0.41803,0 0.0233,0 0.0489,0.0104 0.0697,0 0.0293,-0.0147 0.0403,-0.055 0.0697,-0.0697 0.0423,-0.0212 0.37572,0.0212 0.41802,0 0.0294,-0.0147 0.0403,-0.055 0.0697,-0.0696 0.0438,-0.0219 0.23489,0.0218 0.27868,0 0.0294,-0.0147 0.0385,-0.0593 0.0697,-0.0697 0.0385,-0.0128 0.34787,0 0.41803,0 0.0232,0 0.0464,0 0.0697,0 0.0232,0 0.0489,0.0104 0.0697,0 0.0294,-0.0147 0.0385,-0.0593 0.0697,-0.0697 0.0319,-0.0106 0.24769,0.0155 0.27869,0 0.0293,-0.0147 0.0403,-0.0549 0.0697,-0.0697 0.0383,-0.0191 0.36356,0.0182 0.41803,0 0.0311,-0.0104 0.0403,-0.055 0.0697,-0.0697 0.018,-0.009 0.36865,0 0.41803,0 0.0232,0 0.0489,0.0104 0.0697,0 0.0293,-0.0147 0.0403,-0.055 0.0697,-0.0697 0.0415,-0.0208 0.0978,0.0207 0.13934,0 0.0293,-0.0147 0.0403,-0.055 0.0697,-0.0696 0.0423,-0.0212 0.37573,0.0212 0.41804,0 0.0293,-0.0147 0.0403,-0.055 0.0697,-0.0697 0.0212,-0.0106 0.17764,0 0.20902,0 0.0256,0 0.27588,0.003 0.27868,0 0.0164,-0.0164 -0.0164,-0.0532 0,-0.0696 0.019,-0.019 0.24089,0.0189 0.27868,0 0.0293,-0.0147 0.0403,-0.055 0.0697,-0.0697 0.0183,-0.009 0.24225,0 0.27868,0 0.18579,0 0.37158,0 0.55737,0 0.0256,0 0.27588,0.003 0.27868,0 0.0164,-0.0164 -0.0164,-0.0532 0,-0.0697 0.0168,-0.0168 0.26192,0.0168 0.27868,0 0.0164,-0.0164 -0.0164,-0.0532 0,-0.0696 0.0164,-0.0164 0.0533,0.0164 0.0697,0 0.0164,-0.0164 -0.0164,-0.0532 0,-0.0697 0.0328,-0.0328 0.10649,0.0328 0.13934,0 0.0164,-0.0164 -0.0164,-0.0533 0,-0.0697 0.0164,-0.0164 0.0532,0.0164 0.0697,0 0.0328,-0.0328 -0.0328,-0.1065 0,-0.13934 0.0328,-0.0328 0.1065,0.0328 0.13935,0 0.0164,-0.0164 -0.0164,-0.0532 0,-0.0696 0.0687,-0.0687 0.13934,0.14275 0.13934,-0.0697"
     id="path113"
     inkscape:connector-curvature="0" />
  <path
     style="opacity:1;vector-effect:none;fill:#000000;fill-opacity:1;stroke:#000000;stroke-width:0.12300371;stroke-linecap:butt;stroke-linejoin:miter;stroke-miterlimit:4;stroke-dasharray:none;stroke-dashoffset:0;stroke-opacity:1"
     d="m 919.13208,107.05225 c -0.38552,0.0574 -0.036,-0.18378 -0.0985,-0.24632 -0.0116,-0.0116 -0.0377,0.0116 -0.0492,0 -0.0116,-0.0116 0.0116,-0.0377 0,-0.0492 -0.0116,-0.0116 -0.0377,0.0116 -0.0492,0 -0.0116,-0.0116 0.007,-0.0346 0,-0.0492 -0.0104,-0.0208 -0.0389,-0.0285 -0.0492,-0.0492 -0.008,-0.0147 0.0116,-0.0377 0,-0.0492 -0.0116,-0.0116 -0.0377,0.0116 -0.0492,0 -0.0116,-0.0116 0.0116,-0.0377 0,-0.0493 -0.0116,-0.0116 -0.0377,0.0116 -0.0492,0 -0.10193,-0.10193 0.15576,0.004 -0.0492,-0.0985 -0.0147,-0.008 -0.0377,0.0116 -0.0492,0 -0.0116,-0.0116 0.0116,-0.0377 0,-0.0493 -0.0116,-0.0116 -0.0377,0.0116 -0.0492,0 -0.0233,-0.0233 0.0232,-0.0753 0,-0.0985 -0.0116,-0.0116 -0.0346,0.008 -0.0492,0 -0.20503,-0.10251 0.0527,0.004 -0.0492,-0.0985 -0.0116,-0.0116 -0.0377,0.0116 -0.0492,0 -0.0232,-0.0233 0.0233,-0.0753 0,-0.0985 -0.0232,-0.0233 -0.0753,0.0233 -0.0985,0 -0.0232,-0.0233 0.0233,-0.0753 0,-0.0985 -0.0116,-0.0116 -0.0377,0.0116 -0.0492,0 -0.0232,-0.0233 0.0233,-0.0753 0,-0.0985 -0.0116,-0.0116 -0.0377,0.0116 -0.0492,0 -0.0116,-0.0116 0.0116,-0.0377 0,-0.0493 -0.0116,-0.0116 -0.0377,0.0116 -0.0492,0 -0.0116,-0.0116 0.0116,-0.0377 0,-0.0492 -0.0116,-0.0116 -0.0377,0.0116 -0.0492,0 -0.0232,-0.0233 0.0232,-0.0753 0,-0.0985 -0.0116,-0.0116 -0.0377,0.0116 -0.0492,0 -0.0116,-0.0116 0.0116,-0.0377 0,-0.0493 -0.0116,-0.0116 -0.0377,0.0116 -0.0492,0 -0.0232,-0.0232 0.0232,-0.0753 0,-0.0985 -0.0116,-0.0116 -0.0377,0.0116 -0.0492,0 -0.0116,-0.0116 0.0116,-0.0377 0,-0.0492 -0.10193,-0.10192 0.004,0.15577 -0.0985,-0.0493 -0.008,-0.0147 0.0116,-0.0377 0,-0.0492 -0.0116,-0.0116 -0.0377,0.0116 -0.0492,0 -0.0233,-0.0232 0.0232,-0.0753 0,-0.0985 -0.0233,-0.0233 -0.0753,0.0233 -0.0985,0 -0.0116,-0.0116 0.0116,-0.0377 0,-0.0493 -0.0116,-0.0116 -0.0377,0.0116 -0.0492,0 -0.0233,-0.0232 0.0232,-0.0753 0,-0.0985 -0.0116,-0.0116 -0.0346,0.008 -0.0492,0 -0.20503,-0.10251 0.0527,0.004 -0.0492,-0.0985 -0.0116,-0.0116 -0.0377,0.0116 -0.0492,0 -0.0232,-0.0233 0.0233,-0.0753 0,-0.0985 -0.0116,-0.0116 -0.0346,0.007 -0.0492,0 -0.10893,-0.0545 -0.0153,-0.0306 -0.0492,-0.0985 -0.0104,-0.0208 -0.0389,-0.0285 -0.0492,-0.0492 -0.007,-0.0147 0.0116,-0.0377 0,-0.0492 -0.0116,-0.0116 -0.0377,0.0116 -0.0493,0 -0.0232,-0.0232 0.0233,-0.0753 0,-0.0985 -0.0116,-0.0116 -0.0377,0.0116 -0.0492,0 -0.10192,-0.10193 0.15577,0.004 -0.0492,-0.0985 -0.0147,-0.008 -0.0377,0.0116 -0.0492,0 -0.0328,-0.0328 0.0328,-0.0657 0,-0.0985 -0.0116,-0.0116 -0.0377,0.0116 -0.0492,0 -0.0232,-0.0233 0.0232,-0.0753 0,-0.0985 -0.0116,-0.0116 -0.0346,0.008 -0.0492,0 -0.20503,-0.10252 0.0527,0.004 -0.0492,-0.0985 -0.0116,-0.0116 -0.0377,0.0116 -0.0493,0 -0.0232,-0.0233 0.0232,-0.0753 0,-0.0985 -0.0116,-0.0116 -0.0346,0.007 -0.0492,0 -0.20503,-0.10251 0.0527,0.004 -0.0492,-0.0985 -0.0116,-0.0116 -0.0377,0.0116 -0.0492,0 -0.10192,-0.10192 0.15577,0.004 -0.0492,-0.0985 -0.0147,-0.007 -0.0377,0.0116 -0.0492,0 -0.0232,-0.0232 0.0233,-0.0753 0,-0.0985 -0.0116,-0.0116 -0.0346,0.007 -0.0492,0 -0.0208,-0.0104 -0.0285,-0.0389 -0.0493,-0.0492 -0.0147,-0.007 -0.0377,0.0116 -0.0492,0 -0.0116,-0.0116 0.0116,-0.0377 0,-0.0493 -0.0116,-0.0116 -0.0377,0.0116 -0.0492,0 -0.0116,-0.0116 -0.0164,-0.0492 0,-0.0492 0.0164,0 0.0116,0.0377 0,0.0492 -0.0116,0.0116 -0.0328,0 -0.0492,0 -0.13138,0 0.0164,0.0164 -0.0492,-0.0492 -0.0232,-0.0233 -0.0692,0.0147 -0.0985,0 -0.20503,-0.10252 0.0527,0.004 -0.0492,-0.0985 -0.0232,-0.0233 -0.0753,0.0232 -0.0985,0 -0.0116,-0.0116 0.0116,-0.0377 0,-0.0493 -0.10194,-0.10193 0.004,0.15576 -0.0985,-0.0492 -0.008,-0.0147 0.0116,-0.0377 0,-0.0492 -0.0233,-0.0233 -0.0753,0.0233 -0.0985,0 -0.0116,-0.0116 0.007,-0.0346 0,-0.0492 -0.0104,-0.0208 -0.0389,-0.0285 -0.0492,-0.0493 -0.007,-0.0147 0.0116,-0.0377 0,-0.0492 -0.0116,-0.0116 -0.0377,0.0116 -0.0492,0 -0.0116,-0.0116 0.0116,-0.0377 0,-0.0492 -0.0116,-0.0116 -0.0328,0 -0.0492,0 -0.0164,0 -0.0328,0 -0.0492,0"
     id="path115"
     inkscape:connector-curvature="0" />
  <path
     style="fill:#4d4d4d;fill-opacity:1;fill-rule:nonzero;stroke:#00ffcc;stroke-width:0.21019618"
     d="m 909.2653,266.89076 c 0,-0.0906 -1.28035,-6.02607 -2.84522,-13.18981 -8.0863,-37.01779 -9.5127,-44.50761 -10.62684,-55.79991 -0.34792,-3.5263 -0.49702,-33.9159 -0.20471,-41.72394 0.76669,-20.47946 2.64885,-32.02134 6.66071,-40.84511 2.204,-4.8475 6.03577,-9.44572 10.07943,-12.09554 l 0.8563,-0.56114 18.27155,0.056 18.27155,0.056 4.62431,1.92398 c 16.68341,6.94124 19.5411,8.42792 22.02364,11.45753 2.16382,2.64067 5.51395,8.87888 8.0027,14.90168 10.70911,25.91621 32.92158,93.82214 35.02768,107.08315 0.1285,0.80925 0.2774,1.68236 0.3309,1.94025 0.079,0.38074 -0.052,0.53282 -0.6941,0.80909 -3.6168,1.55524 -18.5331,5.86446 -31.16453,9.00326 -5.90118,1.46639 -7.60324,1.82806 -16.92079,3.59548 -5.84682,1.10906 -13.89146,2.84003 -22.59609,4.862 -16.78503,3.89894 -38.28388,8.69189 -38.9876,8.69189 -0.0599,0 -0.10889,-0.0742 -0.10889,-0.16482 z"
     id="path117"
     inkscape:connector-curvature="0"
     transform="scale(0.9375)" />
  <path
     style="fill:#4d4d4d;fill-opacity:1;fill-rule:nonzero;stroke:#00ffcc;stroke-width:2.37809825"
     d="m 779.96235,215.67749 c -53.80771,-6.75827 -129.80893,-13.66226 -184.30262,-16.74214 -61.69824,-3.48707 -196.41527,-1.43521 -249.37432,3.79818 -21.40194,2.11494 -39.45009,3.30787 -40.10699,2.65097 -0.65691,-0.65691 13.10827,-15.45675 30.58927,-32.88855 50.83898,-50.69587 93.8986,-80.04602 128.46626,-87.564753 25.69277,-5.588374 390.01816,0.176475 396.53548,6.27452 1.24556,1.165414 -17.76758,103.616483 -21.80511,117.495593 -3.06138,10.52349 -3.28956,10.70772 -13.72182,11.07899 -5.83476,0.20765 -26.66084,-1.63861 -46.28015,-4.10281 z"
     id="path119"
     inkscape:connector-curvature="0"
     transform="scale(0.9375)" />
  <path
     style="fill:#4d4d4d;fill-opacity:1;fill-rule:nonzero;stroke:#00ffcc;stroke-width:2.37809825"
     d="m 518.41224,417.37944 c -0.5495,-1.63495 -2.6796,-14.6666 -4.73357,-28.95924 l -3.73449,-25.98661 14.91512,-24.9281 14.91512,-24.9281 76.09915,0.55177 c 85.04946,0.61666 82.27649,0.0539 87.01683,17.65825 3.25244,12.07863 1.02984,27.78181 -6.19536,43.7717 -13.21262,29.24044 -36.7023,38.34378 -111.69617,43.28739 -50.5628,3.33311 -65.34427,3.22943 -66.58663,-0.46706 z"
     id="path121"
     inkscape:connector-curvature="0"
     transform="scale(0.9375)" />
  <path
     style="fill:#4d4d4d;fill-opacity:1;fill-rule:nonzero;stroke:#00ffcc;stroke-width:2.37809825"
     d="M 86.746684,386.25654 C 64.314318,377.62608 54.398172,371.86481 50.97864,365.47536 c -6.586626,-12.30723 0.991114,-49.5799 12.796172,-62.94061 l 5.136134,-5.81297 27.839456,3.05218 c 15.311698,1.6787 28.437638,3.65036 29.168748,4.38148 0.73112,0.73111 2.58184,9.92295 4.11272,20.42631 l 2.78341,19.09701 -9.49046,24.6551 c -5.46766,14.20431 -10.94731,24.87646 -12.92739,25.17734 -1.8903,0.28724 -12.533136,-2.97736 -23.650746,-7.25466 z"
     id="path123"
     inkscape:connector-curvature="0"
     transform="scale(0.9375)" />
</svg>
