<?xml version="1.0" encoding="UTF-8" standalone="no"?>
<!-- Created with Inkscape (http://www.inkscape.org/) -->

<svg
   xmlns:dc="http://purl.org/dc/elements/1.1/"
   xmlns:cc="http://creativecommons.org/ns#"
   xmlns:rdf="http://www.w3.org/1999/02/22-rdf-syntax-ns#"
   xmlns:svg="http://www.w3.org/2000/svg"
   xmlns="http://www.w3.org/2000/svg"
   xmlns:sodipodi="http://sodipodi.sourceforge.net/DTD/sodipodi-0.dtd"
   xmlns:inkscape="http://www.inkscape.org/namespaces/inkscape"
   width="58.366825mm"
   height="17.942802mm"
   viewBox="0 0 58.366826 17.942802"
   version="1.1"
   id="svg8"
   sodipodi:docname="logo2.svg"
   inkscape:version="0.92.5 (2060ec1f9f, 2020-04-08)">
  <defs
     id="defs2" />
  <sodipodi:namedview
     id="base"
     pagecolor="#ffffff"
     bordercolor="#666666"
     borderopacity="1.0"
     inkscape:pageopacity="0.0"
     inkscape:pageshadow="2"
     inkscape:zoom="0.7"
     inkscape:cx="389.2723"
     inkscape:cy="-158.39609"
     inkscape:document-units="mm"
     inkscape:current-layer="layer1"
     showgrid="false"
     inkscape:window-width="1005"
     inkscape:window-height="811"
     inkscape:window-x="845"
     inkscape:window-y="45"
     inkscape:window-maximized="0" />
  <metadata
     id="metadata5">
    <rdf:RDF>
      <cc:Work
         rdf:about="">
        <dc:format>image/svg+xml</dc:format>
        <dc:type
           rdf:resource="http://purl.org/dc/dcmitype/StillImage" />
        <dc:title></dc:title>
      </cc:Work>
    </rdf:RDF>
  </metadata>
  <g
     inkscape:label="Layer 1"
     inkscape:groupmode="layer"
     id="layer1"
     transform="translate(-28.380231,-152.83434)">
    <path
       d="m 28.548298,153.05918 c 0,0 13.368327,0 13.368327,0 0,0 0,3.3469 0,3.3469 0,0 -4.861212,0 -4.861212,0 0,0 0,14.13142 0,14.13142 0,0 -3.645901,0 -3.645901,0 0,0 0,-14.13142 0,-14.13142 0,0 -4.861214,0 -4.861214,0 0,0 0,-3.3469 0,-3.3469 z m 16.406593,0 c 0,0 3.645899,0 3.645899,0 0,0 0,14.13141 0,14.13141 0,0 6.684164,0 6.684164,0 0,0 0,3.34691 0,3.34691 0,0 -10.330063,0 -10.330063,0 0,0 0,-17.47832 0,-17.47832 z m 13.672131,0 c 2.029576,0 7.501478,-0.30483 9.108689,0.49835 1.819932,0.90736 2.704066,3.64439 1.777414,5.80873 -0.37069,0.85903 -0.872005,1.29045 -1.467515,1.87426 3.244888,1.39087 3.017019,6.73848 0.59551,8.38963 -1.987016,1.35734 -7.556129,0.90735 -10.014098,0.90735 0,0 0,-17.47832 0,-17.47832 z m 14.583641,0 c 0,0 13.368327,0 13.368327,0 0,0 0,3.3469 0,3.3469 0,0 -4.861213,0 -4.861213,0 0,0 0,14.13142 0,14.13142 0,0 -3.645901,0 -3.645901,0 0,0 0,-14.13142 0,-14.13142 0,0 -4.861213,0 -4.861213,0 0,0 0,-3.3469 0,-3.3469 z m -10.937704,6.69385 c 0.817274,0 2.306028,0.11905 2.980526,-0.37948 1.036031,-0.74379 1.124125,-2.41724 0,-3.06431 -0.644139,-0.36456 -2.236169,-0.27539 -2.980526,-0.27539 0,0 0,3.71879 0,3.71879 z m 0,7.80947 c 1.096781,0 2.655406,0.13398 3.575993,-0.68797 0.923645,-0.82189 1.218367,-2.43213 0.242948,-3.36926 -0.920555,-0.88878 -2.694922,-0.77722 -3.819048,-0.77722 0,0 0,4.83445 0,4.83445 z"
       id="Seleção"
       inkscape:connector-curvature="0"
       style="fill:#ffffff;stroke:#000000;stroke-width:0.33613467" />
  </g>
</svg>
