<?xml version="1.0" encoding="UTF-8" standalone="no"?>
<!-- Created with Inkscape (http://www.inkscape.org/) -->

<svg
   xmlns:dc="http://purl.org/dc/elements/1.1/"
   xmlns:cc="http://creativecommons.org/ns#"
   xmlns:rdf="http://www.w3.org/1999/02/22-rdf-syntax-ns#"
   xmlns:svg="http://www.w3.org/2000/svg"
   xmlns="http://www.w3.org/2000/svg"
   xmlns:xlink="http://www.w3.org/1999/xlink"
   xmlns:sodipodi="http://sodipodi.sourceforge.net/DTD/sodipodi-0.dtd"
   xmlns:inkscape="http://www.inkscape.org/namespaces/inkscape"
   width="79.124062mm"
   height="31.044544mm"
   viewBox="0 0 79.124063 31.044543"
   version="1.1"
   id="svg8"
   sodipodi:docname="logo3.svg"
   inkscape:version="0.92.5 (2060ec1f9f, 2020-04-08)">
  <defs
     id="defs2">
    <linearGradient
       id="linearGradient7719"
       inkscape:collect="always">
      <stop
         id="stop7715"
         offset="0"
         style="stop-color:#ffffff;stop-opacity:1;" />
      <stop
         style="stop-color:#ffffff;stop-opacity:0.87058824;"
         offset="0.12650782"
         id="stop7721" />
      <stop
         id="stop7723"
         offset="0.31403446"
         style="stop-color:#ffffff;stop-opacity:0.68235294;" />
      <stop
         style="stop-color:#ffffff;stop-opacity:0.47843137;"
         offset="0.51649153"
         id="stop7725" />
      <stop
         id="stop7727"
         offset="0.66340733"
         style="stop-color:#ffffff;stop-opacity:0.32941176;" />
      <stop
         style="stop-color:#ffffff;stop-opacity:0.16470588;"
         offset="0.86347556"
         id="stop7729" />
      <stop
         id="stop7717"
         offset="1"
         style="stop-color:#ffffff;stop-opacity:0;" />
    </linearGradient>
    <linearGradient
       inkscape:collect="always"
       id="linearGradient7681">
      <stop
         style="stop-color:#ffffff;stop-opacity:1;"
         offset="0"
         id="stop7677" />
      <stop
         style="stop-color:#ffffff;stop-opacity:0;"
         offset="1"
         id="stop7679" />
    </linearGradient>
    <linearGradient
       inkscape:collect="always"
       xlink:href="#linearGradient7719"
       id="linearGradient7683"
       x1="-0.5050602"
       y1="58.744884"
       x2="298.50009"
       y2="58.744862"
       gradientUnits="userSpaceOnUse" />
    <linearGradient
       inkscape:collect="always"
       xlink:href="#linearGradient7681"
       id="linearGradient7685"
       x1="-0.5050602"
       y1="58.744884"
       x2="298.50009"
       y2="58.744862"
       gradientUnits="userSpaceOnUse" />
    <linearGradient
       inkscape:collect="always"
       xlink:href="#linearGradient7681"
       id="linearGradient7687"
       x1="-0.5050602"
       y1="58.744884"
       x2="298.50009"
       y2="58.744862"
       gradientUnits="userSpaceOnUse" />
    <linearGradient
       inkscape:collect="always"
       xlink:href="#linearGradient7681"
       id="linearGradient7689"
       x1="-0.5050602"
       y1="58.744884"
       x2="298.50009"
       y2="58.744862"
       gradientUnits="userSpaceOnUse" />
    <linearGradient
       inkscape:collect="always"
       xlink:href="#linearGradient7681"
       id="linearGradient7691"
       x1="-0.5050602"
       y1="58.744884"
       x2="298.50009"
       y2="58.744862"
       gradientUnits="userSpaceOnUse" />
    <linearGradient
       inkscape:collect="always"
       xlink:href="#linearGradient7681"
       id="linearGradient7693"
       x1="-0.5050602"
       y1="58.744884"
       x2="298.50009"
       y2="58.744862"
       gradientUnits="userSpaceOnUse" />
    <linearGradient
       inkscape:collect="always"
       xlink:href="#linearGradient7681"
       id="linearGradient7695"
       x1="-0.5050602"
       y1="58.744884"
       x2="298.50009"
       y2="58.744862"
       gradientUnits="userSpaceOnUse" />
    <linearGradient
       inkscape:collect="always"
       xlink:href="#linearGradient7681"
       id="linearGradient7697"
       x1="-0.5050602"
       y1="58.744884"
       x2="298.50009"
       y2="58.744862"
       gradientUnits="userSpaceOnUse" />
    <linearGradient
       inkscape:collect="always"
       xlink:href="#linearGradient7681"
       id="linearGradient7699"
       x1="-0.5050602"
       y1="58.744884"
       x2="298.50009"
       y2="58.744862"
       gradientUnits="userSpaceOnUse" />
    <linearGradient
       inkscape:collect="always"
       xlink:href="#linearGradient7681"
       id="linearGradient7701"
       x1="-0.5050602"
       y1="58.744884"
       x2="298.50009"
       y2="58.744862"
       gradientUnits="userSpaceOnUse" />
    <linearGradient
       inkscape:collect="always"
       xlink:href="#linearGradient7681"
       id="linearGradient7703"
       x1="-0.5050602"
       y1="58.744884"
       x2="298.50009"
       y2="58.744862"
       gradientUnits="userSpaceOnUse" />
    <linearGradient
       inkscape:collect="always"
       xlink:href="#linearGradient7681"
       id="linearGradient7705"
       x1="-0.5050602"
       y1="58.744884"
       x2="298.50009"
       y2="58.744862"
       gradientUnits="userSpaceOnUse" />
    <linearGradient
       inkscape:collect="always"
       xlink:href="#linearGradient7681"
       id="linearGradient7707"
       x1="-0.5050602"
       y1="58.744884"
       x2="298.50009"
       y2="58.744862"
       gradientUnits="userSpaceOnUse" />
    <linearGradient
       inkscape:collect="always"
       xlink:href="#linearGradient7681"
       id="linearGradient7709"
       x1="-0.5050602"
       y1="58.744884"
       x2="298.50009"
       y2="58.744862"
       gradientUnits="userSpaceOnUse" />
    <linearGradient
       inkscape:collect="always"
       xlink:href="#linearGradient7681"
       id="linearGradient7711"
       x1="146.8676"
       y1="223.33649"
       x2="225.97937"
       y2="223.33649"
       gradientUnits="userSpaceOnUse" />
    <linearGradient
       inkscape:collect="always"
       xlink:href="#linearGradient7681"
       id="linearGradient7713"
       x1="146.8676"
       y1="223.33649"
       x2="225.97937"
       y2="223.33649"
       gradientUnits="userSpaceOnUse" />
  </defs>
  <sodipodi:namedview
     id="base"
     pagecolor="#ffffff"
     bordercolor="#666666"
     borderopacity="1.0"
     inkscape:pageopacity="0.0"
     inkscape:pageshadow="2"
     inkscape:zoom="2.8"
     inkscape:cx="66.881455"
     inkscape:cy="4.7532258"
     inkscape:document-units="mm"
     inkscape:current-layer="layer1"
     showgrid="false"
     inkscape:window-width="2560"
     inkscape:window-height="1002"
     inkscape:window-x="0"
     inkscape:window-y="1080"
     inkscape:window-maximized="1" />
  <metadata
     id="metadata5">
    <rdf:RDF>
      <cc:Work
         rdf:about="">
        <dc:format>image/svg+xml</dc:format>
        <dc:type
           rdf:resource="http://purl.org/dc/dcmitype/StillImage" />
        <dc:title></dc:title>
      </cc:Work>
    </rdf:RDF>
  </metadata>
  <g
     inkscape:label="Layer 1"
     inkscape:groupmode="layer"
     id="layer1"
     transform="translate(-147.00123,-207.79357)">
    <path
       d="m 147.43229,208.02586 c 1.46561,-0.0132 4.19048,-0.0185 5.54497,-0.0185 0,0 12.93121,0 12.93121,0 0.0159,1.08201 -0.005,-0.12963 0.0317,1.85185 0.0582,3.25132 -0.0238,2.75396 -0.0317,3.43915 0,0 -16.10581,0 -16.10581,0 -0.52645,0 -1.69576,-0.0238 -2.35714,-0.0238 0,-1.1508 -0.0185,-4.291 -0.0132,-5.24868 z m 21.41797,-0.0185 c 0,0 3.96825,0 3.96825,0 0,0 1.85185,0 1.85185,0 0,0 0,2.38095 0,2.38095 0,0 0,18.78305 0,18.78305 0,0 -5.8201,0 -5.8201,0 0,0 0,-21.164 0,-21.164 z m 20.89945,25.13225 c 2.14815,0 6.15608,0.23545 7.93121,-0.97884 1.89418,-1.29365 2.1746,-3.51058 0.25926,-4.93386 -1.24867,-0.93121 -2.48148,-0.96296 -3.95767,-0.9656 0,0 -6.8783,0 -6.8783,0 -0.63756,0 -2.00264,0 -3.10581,-0.0344 -0.0926,-0.83862 -0.0688,-1.73809 -0.0688,-2.34655 0,0 0,-13.7566 0,-13.7566 0.0159,-2.1508 0.33598,-2.11111 2.38095,-2.1164 5.5,-0.0106 15.37036,-1.12963 17.80157,5.291 0.28572,0.75661 0.60053,2.10581 0.67196,2.91005 0.10053,1.14285 -0.23545,2.93386 -0.72751,3.96825 -0.78836,1.66137 -2.03439,2.18253 -3.19577,3.43915 4.78307,1.18518 5.33598,7.95237 2.76455,11.37565 -2.27777,3.02909 -6.61639,3.69841 -10.17195,3.7037 -0.77777,0 -2.48412,-0.0106 -3.69311,-0.045 -0.0106,-0.80687 -0.0106,-1.80952 -0.0106,-2.33597 0,0 0,-3.1746 0,-3.1746 z m 17.9894,-19.84125 c 0,-4.6455 -0.0159,-3.95238 0.0661,-5.27513 0,0 18.18781,-0.0159 18.18781,-0.0159 0,0 0,5.291 0,5.291 0,0 -18.25395,0 -18.25395,0 z m -17.9894,7.14285 c 1.74339,0 5.7037,0.21693 7.14285,-0.43651 2.56614,-1.16138 2.72222,-4.42328 0.25926,-5.80423 -1.70105,-0.95238 -5.38094,-0.63756 -7.40211,-0.63756 0,0 0,6.8783 0,6.8783 z m -35.9788,-3.1746 c 0,0 5.8201,0 5.8201,0 0,0 0,16.4021 0,16.4021 0,0.92063 0.008,4.10052 -0.0317,5.00264 -0.6799,0.0238 -1.60318,0.0212 -2.08466,0.0238 0,0 -3.69576,-0.0238 -3.69576,-0.0238 0.008,-1.53175 -0.008,-0.60053 -0.008,-5.00264 0,0 0,-16.4021 0,-16.4021 z m 60.3174,0 c 0,0 5.80952,0 5.80952,0 0,0 0,2.91005 0,2.91005 0,0 -0.005,1.85185 -0.005,1.85185 0,0 0.0159,3.1746 0.0159,3.1746 0,0 0,8.20105 0,8.20105 0,0.94709 0.0238,3.77513 -0.005,5.26719 -0.88359,0.005 -1.8492,0.0238 -2.37566,0.0238 0,0 -3.43915,0 -3.43915,0 0,0 0,-21.42855 0,-21.42855 z m -45.23805,15.60845 c 0,0 7.4074,0 7.4074,0 0,0 9.49206,-0.0159 9.49206,-0.0159 0.0238,1.31482 0.037,0.52381 0.0317,3.45503 0,0.52645 0.0238,1.72486 -0.045,2.28835 -0.78307,0.0926 -1.72751,0.0926 -2.33598,0.0926 0,0 -14.52644,0.0106 -14.52644,0.0106 -0.0238,-0.81482 0.0132,0.11905 -0.0238,-1.86243 0,0 0,-3.96825 0,-3.96825 z m 51.30419,5.05555 m -66.80417,0.77248"
       id="Seleção"
       inkscape:connector-curvature="0"
       style="fill:url(#linearGradient7713);stroke:#000000;stroke-width:0.26455;fill-opacity:1" />
    <path
       style="fill:url(#linearGradient7711);stroke:#000000;stroke-width:0.26455;fill-opacity:1"
       inkscape:connector-curvature="0"
       id="path7232"
       d="m 147.43229,208.02586 c 1.46561,-0.0132 4.19048,-0.0185 5.54497,-0.0185 0,0 12.93121,0 12.93121,0 0.0159,1.08201 -0.005,-0.12963 0.0317,1.85185 0.0582,3.25132 -0.0238,2.75396 -0.0317,3.43915 0,0 -16.10581,0 -16.10581,0 -0.52645,0 -1.69576,-0.0238 -2.35714,-0.0238 0,-1.1508 -0.0185,-4.291 -0.0132,-5.24868 z m 21.41797,-0.0185 c 0,0 3.96825,0 3.96825,0 0,0 1.85185,0 1.85185,0 0,0 0,2.38095 0,2.38095 0,0 0,18.78305 0,18.78305 0,0 -5.8201,0 -5.8201,0 0,0 0,-21.164 0,-21.164 z m 20.89945,25.13225 c 2.14815,0 6.15608,0.23545 7.93121,-0.97884 1.89418,-1.29365 2.1746,-3.51058 0.25926,-4.93386 -1.24867,-0.93121 -2.48148,-0.96296 -3.95767,-0.9656 0,0 -6.8783,0 -6.8783,0 -0.63756,0 -2.00264,0 -3.10581,-0.0344 -0.0926,-0.83862 -0.0688,-1.73809 -0.0688,-2.34655 0,0 0,-13.7566 0,-13.7566 0.0159,-2.1508 0.33598,-2.11111 2.38095,-2.1164 5.5,-0.0106 15.37036,-1.12963 17.80157,5.291 0.28572,0.75661 0.60053,2.10581 0.67196,2.91005 0.10053,1.14285 -0.23545,2.93386 -0.72751,3.96825 -0.78836,1.66137 -2.03439,2.18253 -3.19577,3.43915 4.78307,1.18518 5.33598,7.95237 2.76455,11.37565 -2.27777,3.02909 -6.61639,3.69841 -10.17195,3.7037 -0.77777,0 -2.48412,-0.0106 -3.69311,-0.045 -0.0106,-0.80687 -0.0106,-1.80952 -0.0106,-2.33597 0,0 0,-3.1746 0,-3.1746 z m 17.9894,-19.84125 c 0,-4.6455 -0.0159,-3.95238 0.0661,-5.27513 0,0 18.18781,-0.0159 18.18781,-0.0159 0,0 0,5.291 0,5.291 0,0 -18.25395,0 -18.25395,0 z m -17.9894,7.14285 c 1.74339,0 5.7037,0.21693 7.14285,-0.43651 2.56614,-1.16138 2.72222,-4.42328 0.25926,-5.80423 -1.70105,-0.95238 -5.38094,-0.63756 -7.40211,-0.63756 0,0 0,6.8783 0,6.8783 z m -35.9788,-3.1746 c 0,0 5.8201,0 5.8201,0 0,0 0,16.4021 0,16.4021 0,0.92063 0.008,4.10052 -0.0317,5.00264 -0.6799,0.0238 -1.60318,0.0212 -2.08466,0.0238 0,0 -3.69576,-0.0238 -3.69576,-0.0238 0.008,-1.53175 -0.008,-0.60053 -0.008,-5.00264 0,0 0,-16.4021 0,-16.4021 z m 60.3174,0 c 0,0 5.80952,0 5.80952,0 0,0 0,2.91005 0,2.91005 0,0 -0.005,1.85185 -0.005,1.85185 0,0 0.0159,3.1746 0.0159,3.1746 0,0 0,8.20105 0,8.20105 0,0.94709 0.0238,3.77513 -0.005,5.26719 -0.88359,0.005 -1.8492,0.0238 -2.37566,0.0238 0,0 -3.43915,0 -3.43915,0 0,0 0,-21.42855 0,-21.42855 z m -45.23805,15.60845 c 0,0 7.4074,0 7.4074,0 0,0 9.49206,-0.0159 9.49206,-0.0159 0.0238,1.31482 0.037,0.52381 0.0317,3.45503 0,0.52645 0.0238,1.72486 -0.045,2.28835 -0.78307,0.0926 -1.72751,0.0926 -2.33598,0.0926 0,0 -14.52644,0.0106 -14.52644,0.0106 -0.0238,-0.81482 0.0132,0.11905 -0.0238,-1.86243 0,0 0,-3.96825 0,-3.96825 z m 51.30419,5.05555 m -66.80417,0.77248" />
    <path
       style="fill:url(#linearGradient7709);fill-opacity:1;fill-rule:nonzero;stroke-width:0.50507629"
       d="M 254.05893,76.357065 V 36.45604 h 10.35407 10.35406 v 39.579835 39.579835 l -2.34334,0.32119 c -1.28883,0.17665 -5.94816,0.32119 -10.35406,0.32119 h -8.01073 z"
       id="path7390"
       inkscape:connector-curvature="0"
       transform="matrix(0.26458333,0,0,0.26458333,147.00123,207.79357)" />
    <path
       style="fill:url(#linearGradient7707);fill-opacity:1;fill-rule:nonzero;stroke-width:0.50507629"
       d="m 165.54432,115.88355 -3.40927,-0.17669 v -9.57337 -9.573374 l 7.44988,-0.01561 c 16.12294,-0.03374 22.99349,-2.228033 26.76584,-8.548355 3.87794,-6.497231 1.099,-13.383329 -6.91855,-17.14387 l -2.80097,-1.313749 -22.98097,-0.315208 c -12.63953,-0.173362 -23.03779,-0.343825 -23.10724,-0.378807 -0.0694,-0.03498 -0.12627,-14.620124 -0.12627,-32.411439 V 4.0852421 l 1.15957,-1.1595729 c 1.1342,-1.1341998 1.46299,-1.1672185 15.02602,-1.5089899 24.21796,-0.61026219 35.98152,0.9068477 45.68625,5.8920141 7.79915,4.0062946 12.35387,10.1445816 14.40254,19.4099476 1.24713,5.640297 1.24572,8.945036 -0.006,14.166485 -1.47596,6.156521 -2.56914,7.881997 -8.77407,13.848957 -4.8084,4.623994 -5.46956,5.44643 -4.60799,5.731949 10.15389,3.364945 15.57225,11.63374 15.54302,23.719715 -0.021,8.675584 -2.73563,15.587245 -8.26977,21.055323 -6.24748,6.1729 -15.49162,9.53192 -28.8723,10.49123 -6.99261,0.50132 -9.03595,0.52045 -16.15965,0.15125 z m 18.05647,-67.830574 c 4.76509,-0.680469 8.4304,-2.53632 10.5867,-5.360352 4.5489,-5.957504 3.12652,-14.188434 -3.17294,-18.361024 -2.72934,-1.80784 -4.76157,-2.4072 -10.33502,-3.04808 -4.61276,-0.530412 -17.15361,-0.640757 -18.92329,-0.166502 l -1.13642,0.304549 V 34.999718 48.57787 l 9.72272,-0.01 c 5.3475,-0.0055 11.31371,-0.237203 13.25825,-0.514889 z"
       id="path7392"
       inkscape:connector-curvature="0"
       transform="matrix(0.26458333,0,0,0.26458333,147.00123,207.79357)" />
    <path
       style="fill:url(#linearGradient7705);fill-opacity:1;fill-rule:nonzero;stroke-width:0.50507629"
       d="M 83.343153,40.749188 V 1.6057767 H 93.697216 104.05128 V 40.749188 79.892599 H 93.697216 83.343153 Z"
       id="path7394"
       inkscape:connector-curvature="0"
       transform="matrix(0.26458333,0,0,0.26458333,147.00123,207.79357)" />
    <path
       style="fill:url(#linearGradient7703);fill-opacity:1;fill-rule:nonzero;stroke-width:0.50507629"
       d="M 83.343153,105.90403 V 95.549964 h 31.325407 31.32541 l -0.13695,9.975256 -0.13695,9.97526 -2.27284,0.34137 c -1.25006,0.18775 -15.28487,0.35821 -31.18846,0.3788 l -28.915617,0.0374 z"
       id="path7396"
       inkscape:connector-curvature="0"
       transform="matrix(0.26458333,0,0,0.26458333,147.00123,207.79357)" />
    <path
       style="fill:url(#linearGradient7701);fill-opacity:1;fill-rule:nonzero;stroke-width:0.50507629"
       d="M 230.32035,10.949688 V 1.6057767 h 33.84011 33.84011 v 9.3439113 9.343911 h -33.84011 -33.84011 z"
       id="path7398"
       inkscape:connector-curvature="0"
       transform="matrix(0.26458333,0,0,0.26458333,147.00123,207.79357)" />
    <path
       style="fill:url(#linearGradient7699);fill-opacity:1;fill-rule:nonzero;stroke-width:0.50507629"
       d="m 28.921184,115.88573 -2.65165,-0.18551 V 76.078132 36.45604 H 36.623597 46.977661 V 76.045619 115.6352 l -1.136422,0.30455 c -1.166373,0.31257 -12.182534,0.2774 -16.920055,-0.054 z"
       id="path7400"
       inkscape:connector-curvature="0"
       transform="matrix(0.26458333,0,0,0.26458333,147.00123,207.79357)" />
    <path
       style="fill:url(#linearGradient7697);fill-opacity:1;fill-rule:nonzero;stroke-width:0.50507629"
       d="M 5.1825994,19.921235 2.5309489,19.735733 V 10.670754 1.6057767 H 36.623597 70.716246 v 9.3439113 9.343911 L 39.275248,20.200169 C 21.982699,20.148782 6.6410071,20.023262 5.1825994,19.921235 Z"
       id="path7402"
       inkscape:connector-curvature="0"
       transform="matrix(0.26458333,0,0,0.26458333,147.00123,207.79357)" />
    <path
       style="fill:url(#linearGradient7695);fill-opacity:1;fill-rule:nonzero;stroke:#00ffcc;stroke-width:0.50507629"
       d="M 3.9708149,19.559905 C 2.8441403,19.342898 2.8343933,19.265511 2.8343933,10.537314 V 1.7336078 h 33.8401107 33.84011 v 9.0913732 9.091373 L 37.810925,19.847571 C 19.823896,19.809741 4.5958468,19.680291 3.9708149,19.559905 Z"
       id="path7630"
       inkscape:connector-curvature="0"
       transform="matrix(0.26458333,0,0,0.26458333,147.00123,207.79357)" />
    <path
       style="fill:url(#linearGradient7693);fill-opacity:1;fill-rule:nonzero;stroke:#00ffcc;stroke-width:0.50507629"
       d="m 27.7094,115.53001 -1.136422,-0.2245 V 75.944691 36.583871 h 10.104604 10.104603 l -0.129347,39.522218 -0.129347,39.522221 -8.838835,0.0631 c -4.861359,0.0347 -9.350224,-0.0379 -9.975256,-0.1614 z"
       id="path7632"
       inkscape:connector-curvature="0"
       transform="matrix(0.26458333,0,0,0.26458333,147.00123,207.79357)" />
    <path
       style="fill:url(#linearGradient7691);fill-opacity:1;fill-rule:nonzero;stroke:#00ffcc;stroke-width:0.50507629"
       d="M 83.646597,40.624481 V 1.7336078 H 93.748122 103.84965 V 40.624481 79.515354 H 93.748122 83.646597 Z"
       id="path7634"
       inkscape:connector-curvature="0"
       transform="matrix(0.26458333,0,0,0.26458333,147.00123,207.79357)" />
    <path
       style="fill:url(#linearGradient7689);fill-opacity:1;fill-rule:nonzero;stroke:#00ffcc;stroke-width:0.50507629"
       d="M 83.646597,105.79443 V 95.677795 h 31.062193 31.06219 l -0.008,9.217645 c -0.004,5.0697 -0.22316,9.55856 -0.48645,9.97525 -0.4153,0.65723 -4.52996,0.77635 -31.05446,0.89899 l -30.575743,0.14138 z"
       id="path7636"
       inkscape:connector-curvature="0"
       transform="matrix(0.26458333,0,0,0.26458333,147.00123,207.79357)" />
    <path
       style="fill:url(#linearGradient7687);fill-opacity:1;fill-rule:nonzero;stroke:#00ffcc;stroke-width:0.50507629"
       d="m 163.82746,115.51908 -1.38896,-0.21041 v -9.31036 -9.310363 h 6.95804 c 12.87925,0 19.969,-1.51638 24.10293,-5.155217 2.68413,-2.362656 4.78685,-6.278361 4.79451,-8.92832 0.0137,-4.731938 -3.24392,-9.218015 -8.58781,-11.826462 L 186.93469,69.425147 164.96388,69.13486 C 152.87993,68.9752 142.48167,68.741041 141.85664,68.6145 l -1.13642,-0.230068 V 36.080815 3.7771999 l 1.36717,-0.895527 c 1.25213,-0.8201764 3.0689,-0.8945351 21.59201,-0.8837384 19.15502,0.011165 20.50329,0.072723 25.48901,1.1637438 15.83198,3.4645008 23.81009,10.1118407 27.03164,22.5226847 1.33643,5.148515 1.4913,8.846864 0.56421,13.472477 -1.33911,6.681224 -2.60215,8.890887 -8.59434,15.035621 -2.92893,3.003481 -5.32532,5.688694 -5.32532,5.967133 0,0.278438 0.86179,0.790671 1.91508,1.13829 5.3145,1.753943 10.75665,7.614378 12.5977,13.565975 1.40408,4.539009 1.25497,14.950429 -0.27777,19.394893 -5.13305,14.884178 -19.83603,21.850258 -45.47699,21.546418 -3.51241,-0.0416 -7.01124,-0.17036 -7.77516,-0.28609 z m 19.79112,-67.348301 c 6.30842,-1.023541 10.61742,-3.941768 12.51054,-8.472653 2.01683,-4.826956 0.10721,-11.771264 -4.07253,-14.809672 -2.80844,-2.041555 -4.54907,-2.72131 -8.80777,-3.439633 -4.12533,-0.695829 -21.25344,-0.978403 -22.19928,-0.366238 -0.47935,0.310237 -0.63135,3.684712 -0.63135,14.015867 v 13.607251 l 9.97526,-0.0038 c 5.48639,-0.0021 11.4377,-0.241097 13.22513,-0.531107 z"
       id="path7638"
       inkscape:connector-curvature="0"
       transform="matrix(0.26458333,0,0,0.26458333,147.00123,207.79357)" />
    <path
       style="fill:url(#linearGradient7685);fill-opacity:1;fill-rule:nonzero;stroke:#00ffcc;stroke-width:0.50507629"
       d="M 230.62379,10.824981 V 1.7336078 h 33.58757 33.58758 v 9.0913732 9.091373 h -33.58758 -33.58757 z"
       id="path7640"
       inkscape:connector-curvature="0"
       transform="matrix(0.26458333,0,0,0.26458333,147.00123,207.79357)" />
    <path
       style="fill:url(#linearGradient7683);fill-opacity:1;fill-rule:nonzero;stroke:#00ffcc;stroke-width:0.50507629"
       d="M 254.36238,76.232358 V 36.583871 h 10.10152 10.10153 v 39.337041 39.337048 l -1.13642,0.30454 c -0.62504,0.1675 -5.17072,0.30766 -10.10153,0.31145 l -8.9651,0.007 z"
       id="path7642"
       inkscape:connector-curvature="0"
       transform="matrix(0.26458333,0,0,0.26458333,147.00123,207.79357)" />
    <path
       style="fill:#ffffff;fill-opacity:1;fill-rule:nonzero;stroke:#00ffcc;stroke-width:0.35714287"
       d="M 15.631455,19.230493 3.4885982,19.04477 3.3928487,10.562627 3.2970992,2.0804845 H 36.69642 70.095741 v 8.7500005 8.75 l -21.160714,-0.08213 c -11.638393,-0.04517 -26.625,-0.165709 -33.303572,-0.267858 z"
       id="path8232"
       inkscape:connector-curvature="0"
       transform="matrix(0.26458333,0,0,0.26458333,147.00123,207.79357)" />
    <path
       style="fill:#ffffff;fill-opacity:1;fill-rule:nonzero;stroke:#00ffcc;stroke-width:0.35714287"
       d="m 27.327884,115.05824 c -0.353308,-0.14256 -0.446429,-8.29407 -0.446429,-39.078945 v -38.89881 h 9.878553 9.878553 l -0.235696,8.62926 C 46.273233,50.455839 46.16717,68.054053 46.16717,84.816888 v 30.477882 l -9.196429,-0.0282 c -5.058036,-0.0155 -9.397321,-0.10925 -9.642857,-0.20833 z"
       id="path8234"
       inkscape:connector-curvature="0"
       transform="matrix(0.26458333,0,0,0.26458333,147.00123,207.79357)" />
    <path
       style="fill:#ffffff;fill-opacity:1;fill-rule:nonzero;stroke:#00ffcc;stroke-width:0.35714287"
       d="M 84.024313,40.651913 V 2.0804845 h 9.642857 9.64286 V 40.651913 79.223342 h -9.64286 -9.642857 z"
       id="path8236"
       inkscape:connector-curvature="0"
       transform="matrix(0.26458333,0,0,0.26458333,147.00123,207.79357)" />
    <path
       style="fill:#ffffff;fill-opacity:1;fill-rule:nonzero;stroke:#00ffcc;stroke-width:0.35714287"
       d="m 84.024313,105.76184 v -9.752784 h 30.767277 30.76728 l -0.1926,9.151274 c -0.14366,6.82588 -0.30749,9.22227 -0.64473,9.4307 -0.80526,0.49767 -9.31235,0.69301 -35.2508,0.80941 l -25.446427,0.11419 z"
       id="path8238"
       inkscape:connector-curvature="0"
       transform="matrix(0.26458333,0,0,0.26458333,147.00123,207.79357)" />
    <path
       style="fill:#ffffff;fill-opacity:1;fill-rule:nonzero;stroke:#00ffcc;stroke-width:0.35714287"
       d="m 163.39931,115.07844 c -0.33973,-0.15246 -0.44643,-2.31448 -0.44643,-9.04638 v -8.846047 l 8.30358,-0.211278 c 12.06683,-0.307036 17.5081,-1.436861 21.51882,-4.468161 3.31455,-2.505146 5.89189,-6.890714 5.89189,-10.025582 0,-4.916861 -4.0266,-10.001375 -10.04397,-12.682832 l -1.92032,-0.855733 -20.53571,-0.226375 c -11.29464,-0.124507 -21.54018,-0.324567 -22.76786,-0.444578 l -2.23214,-0.2182 V 36.000811 3.9483488 l 0.98214,-0.666075 c 0.93075,-0.6312216 2.0754,-0.666075 21.875,-0.666075 20.5728,0 20.94975,0.012737 24.60674,0.8314705 10.77857,2.4131234 18.09102,6.3087081 22.23836,11.8471007 1.97535,2.637906 4.02346,7.016297 5.01189,10.714286 1.15693,4.328376 1.1518,11.067599 -0.0117,15.353314 -1.25721,4.63099 -2.48066,6.540568 -8.13037,12.689997 -2.82893,3.07915 -5.14351,5.825175 -5.14351,6.102282 0,0.279539 1.31167,1.128707 2.94643,1.907496 3.63569,1.732022 6.46223,4.211457 8.82044,7.737282 2.82574,4.224822 3.39698,6.561197 3.39569,13.8882 -0.001,7.006586 -0.3677,9.123204 -2.28787,13.214286 -4.53457,9.661297 -13.19107,15.138657 -27.69612,17.524587 -3.54857,0.5837 -23.34704,1.11323 -24.375,0.65194 z m 21.19601,-66.741259 c 5.34115,-1.017675 9.6646,-3.951864 11.58712,-7.863839 0.75072,-1.527561 0.87507,-2.276207 0.86019,-5.178572 -0.0229,-4.468467 -0.93636,-6.893198 -3.60045,-9.557284 -4.14175,-4.141748 -8.48072,-5.138251 -22.70115,-5.213619 -7.39467,-0.03919 -9.63798,0.05354 -10,0.413366 -0.36461,0.362403 -0.48973,3.520019 -0.57193,14.432973 l -0.1052,13.969082 10.85478,-0.232225 c 7.26641,-0.155457 11.78763,-0.409964 13.67664,-0.769882 z"
       id="path8240"
       inkscape:connector-curvature="0"
       transform="matrix(0.26458333,0,0,0.26458333,147.00123,207.79357)" />
    <path
       style="fill:#ffffff;fill-opacity:1;fill-rule:nonzero;stroke:#00ffcc;stroke-width:0.35714287"
       d="M 231.16717,10.830485 V 2.0804845 h 33.03571 33.03572 v 8.7500005 8.75 h -33.03572 -33.03571 z"
       id="path8242"
       inkscape:connector-curvature="0"
       transform="matrix(0.26458333,0,0,0.26458333,147.00123,207.79357)" />
    <path
       style="fill:#ffffff;fill-opacity:1;fill-rule:nonzero;stroke:#00ffcc;stroke-width:0.35714287"
       d="M 254.7386,76.404763 V 37.080485 h 9.64286 9.64285 v 38.907492 c 0,21.399122 -0.12053,38.978393 -0.26785,39.065043 -0.14733,0.0867 -4.48661,0.27421 -9.64286,0.41679 l -9.375,0.25923 z"
       id="path8244"
       inkscape:connector-curvature="0"
       transform="matrix(0.26458333,0,0,0.26458333,147.00123,207.79357)" />
  </g>
</svg>
